<svg width="16" height="16" viewBox="0 0 16 16" fill="none" xmlns="http://www.w3.org/2000/svg">
<path d="M7.37568 3.55531L0.255608 10.6755C0.090796 10.8402 0 11.06 0 11.2944C0 11.5288 0.090796 11.7487 0.255608 11.9134L0.779831 12.4377C1.12142 12.7789 1.6766 12.7789 2.01768 12.4377L7.99668 6.4587L13.9823 12.4444C14.1472 12.609 14.3668 12.7 14.6011 12.7C14.8356 12.7 15.0553 12.609 15.2203 12.4444L15.7444 11.92C15.9092 11.7552 16 11.5355 16 11.3011C16 11.0667 15.9092 10.8468 15.7444 10.6822L8.61781 3.55531C8.45248 3.39025 8.23173 3.29958 7.99708 3.3001C7.76149 3.29958 7.54088 3.39025 7.37568 3.55531Z" fill="#6A1B9A"/>
</svg>
