<svg width="16" height="16" viewBox="0 0 16 16" fill="none" xmlns="http://www.w3.org/2000/svg">
<path d="M8.62432 12.4447L15.7444 5.32449C15.9092 5.15981 16 4.93997 16 4.70557C16 4.47116 15.9092 4.25133 15.7444 4.08664L15.2202 3.56229C14.8786 3.22109 14.3234 3.22109 13.9823 3.56229L8.00332 9.5413L2.01773 3.55565C1.8528 3.39097 1.6332 3.30005 1.39893 3.30005C1.1644 3.30005 0.944666 3.39097 0.779733 3.55565L0.2556 4.08001C0.0907995 4.24482 -4.76837e-07 4.46453 -4.76837e-07 4.69893C-4.76837e-07 4.93333 0.0907995 5.15317 0.2556 5.31785L7.38219 12.4447C7.54752 12.6098 7.76827 12.7004 8.00292 12.6999C8.23851 12.7004 8.45912 12.6098 8.62432 12.4447Z" fill="#6A1B9A"/>
</svg>
