<svg width="233" height="159" viewBox="0 0 233 159" fill="none" xmlns="http://www.w3.org/2000/svg">
<path d="M22.1504 87.8093C22.9428 88.8455 23.3451 90.1011 23.3451 91.5762C23.3451 93.7218 22.4796 95.3797 20.7485 96.55C19.0174 97.7203 16.5183 98.3054 13.2512 98.3054H0V73.7778H12.5442C15.6772 73.7778 18.0544 74.3508 19.6879 75.5089C21.3215 76.667 22.1382 78.2274 22.1382 80.1901C22.1382 81.3604 21.8579 82.4088 21.2849 83.3231C20.7119 84.2496 19.8952 84.981 18.8468 85.5174C20.2609 86.0051 21.358 86.7609 22.1504 87.8093ZM6.87553 78.776V83.506H11.6421C13.9827 83.506 15.153 82.7136 15.153 81.1288C15.153 79.5684 13.9827 78.776 11.6421 78.776H6.87553ZM16.3355 90.796C16.3355 89.1381 15.1164 88.3091 12.6905 88.3091H6.87553V93.2829H12.6905C15.1164 93.2951 16.3355 92.4661 16.3355 90.796Z" fill="white"/>
<path d="M43.4598 93.5389H33.0856L31.1594 98.3054H24.0767L34.902 73.7778H41.7409L52.6028 98.3054H45.3859L43.4598 93.5389ZM41.424 88.4188L38.2666 80.568L35.1092 88.4188H41.424Z" fill="white"/>
<path d="M54.6384 73.7656H66.2439C68.9259 73.7656 71.3153 74.2654 73.3877 75.2773C75.4723 76.2769 77.0814 77.7032 78.2274 79.5562C79.3733 81.397 79.9462 83.5669 79.9462 86.0416C79.9462 88.5163 79.3733 90.6741 78.2274 92.527C77.0814 94.3678 75.4723 95.7941 73.3877 96.806C71.3031 97.8056 68.9259 98.3176 66.2439 98.3176H54.6384V73.7656ZM65.9635 92.7587C68.0603 92.7587 69.7548 92.1613 71.0227 90.9666C72.2905 89.772 72.9366 88.1262 72.9366 86.0294C72.9366 83.9326 72.3027 82.2747 71.0227 81.0922C69.7548 79.8975 68.0603 79.3002 65.9635 79.3002H61.5871V92.7587H65.9635Z" fill="white"/>
<path d="M105.815 98.3054L105.742 85.298L99.4271 95.8795H96.3428L90.0646 85.6515V98.3054H83.6523V73.7778H89.3698L97.9886 87.9434L106.4 73.7778H112.118L112.191 98.3054H105.815Z" fill="white"/>
<path d="M117.164 73.7656H124.101V98.2932H117.164V73.7656Z" fill="white"/>
<path d="M152.456 73.7656V98.2932H146.751L135.926 85.2248V98.2932H129.124V73.7656H134.841L145.666 86.834V73.7656H152.456Z" fill="white"/>
<path d="M162.66 79.2758H155.126V73.7778H177.106V79.2758H169.609V98.3054H162.672V79.2758H162.66Z" fill="white"/>
<path d="M184.786 97.1474C182.714 96.0502 181.092 94.5264 179.91 92.5881C178.727 90.6497 178.142 88.4676 178.142 86.0295C178.142 83.6036 178.727 81.4092 179.91 79.4709C181.092 77.5326 182.714 76.0088 184.786 74.9116C186.858 73.8144 189.187 73.2659 191.783 73.2659C194.38 73.2659 196.708 73.8144 198.781 74.9116C200.853 76.0088 202.475 77.5326 203.657 79.4709C204.84 81.4092 205.425 83.5914 205.425 86.0295C205.425 88.4554 204.84 90.6497 203.657 92.5881C202.475 94.5264 200.853 96.0502 198.781 97.1474C196.708 98.2445 194.38 98.7931 191.783 98.7931C189.187 98.7931 186.858 98.2445 184.786 97.1474ZM195.148 92.1736C196.148 91.5884 196.952 90.7717 197.525 89.6989C198.11 88.6383 198.403 87.4192 198.403 86.0417C198.403 84.6641 198.11 83.4451 197.525 82.3845C196.94 81.3239 196.148 80.4949 195.148 79.9098C194.148 79.3246 193.027 79.0321 191.783 79.0321C190.54 79.0321 189.418 79.3246 188.419 79.9098C187.419 80.4949 186.615 81.3117 186.029 82.3845C185.444 83.4451 185.152 84.6641 185.152 86.0417C185.152 87.4192 185.444 88.6383 186.029 89.6989C186.615 90.7595 187.407 91.5884 188.419 92.1736C189.418 92.7587 190.54 93.0513 191.783 93.0513C193.027 93.0391 194.148 92.7466 195.148 92.1736Z" fill="white"/>
<path d="M232.476 73.7656V98.2932H226.759L215.933 85.2248V98.2932H209.131V73.7656H214.848L225.674 86.834V73.7656H232.476Z" fill="white"/>
<path d="M5.08351 124.711C3.49872 123.833 2.25527 122.638 1.35316 121.102C0.451055 119.566 0 117.847 0 115.933C0 114.019 0.451055 112.288 1.35316 110.764C2.25527 109.228 3.49872 108.034 5.0957 107.156C6.69267 106.278 8.47251 105.852 10.4474 105.852C11.9834 105.852 13.3975 106.108 14.6776 106.632C15.9576 107.144 17.0425 107.912 17.9447 108.924L16.1161 110.703C14.6288 109.143 12.7758 108.363 10.5693 108.363C9.10642 108.363 7.77764 108.692 6.59515 109.35C5.41265 110.009 4.48616 110.911 3.81568 112.069C3.14519 113.227 2.81604 114.519 2.81604 115.945C2.81604 117.372 3.14519 118.664 3.81568 119.822C4.48616 120.98 5.41265 121.882 6.59515 122.541C7.77764 123.199 9.10642 123.528 10.5693 123.528C12.7636 123.528 14.6166 122.736 16.1161 121.163L17.9447 122.943C17.0425 123.955 15.9454 124.723 14.6654 125.259C13.3732 125.783 11.959 126.051 10.423 126.051C8.44813 126.027 6.66829 125.588 5.08351 124.711Z" fill="white"/>
<path d="M46.2391 120.87H35.7552L33.5852 125.808H30.6838L39.6196 106.083H42.4113L51.3714 125.808H48.4091L46.2391 120.87ZM45.2517 118.615L40.9971 108.948L36.7426 118.615H45.2517Z" fill="white"/>
<path d="M79.6537 125.795L75.3991 119.737C74.8749 119.773 74.4605 119.798 74.1557 119.798H69.2794V125.795H66.4634V106.071H74.1557C76.7157 106.071 78.715 106.68 80.1901 107.9C81.6529 109.119 82.3844 110.801 82.3844 112.946C82.3844 114.47 82.0065 115.762 81.2628 116.835C80.507 117.908 79.4464 118.688 78.0445 119.176L82.7257 125.795H79.6537ZM78.1664 116.25C79.1051 115.482 79.5805 114.385 79.5805 112.959C79.5805 111.532 79.1051 110.435 78.1664 109.679C77.2277 108.924 75.8624 108.533 74.0825 108.533H69.2916V117.408H74.0825C75.8624 117.396 77.2277 117.018 78.1664 116.25Z" fill="white"/>
<path d="M116.092 106.071V125.795H113.775L101.938 111.081V125.795H99.1223V106.071H101.439L113.276 120.785V106.071H116.092Z" fill="white"/>
<path d="M134.183 106.071H136.999V125.795H134.183V106.071Z" fill="white"/>
<path d="M172.022 106.071L163.367 125.795H160.575L151.896 106.071H154.943L162.05 122.272L169.206 106.071H172.022Z" fill="white"/>
<path d="M198.659 120.87H188.175L186.005 125.808H183.104L192.04 106.083H194.831L203.791 125.808H200.829L198.659 120.87ZM197.672 118.615L193.417 108.948L189.163 118.615H197.672Z" fill="white"/>
<path d="M218.883 106.071H221.699V123.345H232.378V125.795H218.883V106.071Z" fill="white"/>
<path d="M232.476 134.426H0V136.182H232.476V134.426Z" fill="white"/>
<path d="M232.476 63.3914H0V65.1468H232.476V63.3914Z" fill="white"/>
<path d="M109.58 24.3427C109.46 24.5508 109.334 24.7535 109.224 24.9671C108.6 26.1885 108.008 27.4264 107.351 28.6259C107.034 29.1373 106.685 29.6276 106.305 30.0939C105.933 30.5469 105.412 30.8515 104.834 30.9521C104.257 31.0526 103.663 30.9424 103.161 30.6416C102.64 30.3771 102.187 29.9974 101.836 29.5313C101.485 29.0652 101.245 28.5252 101.134 27.9522C100.975 27.273 100.849 27.295 100.241 27.6346C99.8474 27.8305 99.5174 28.1343 99.2895 28.5105C99.0617 28.8868 98.9453 29.32 98.9541 29.7597C98.8432 31.5671 98.1625 33.2929 97.0096 34.6893C96.3799 35.4858 95.5486 36.0994 94.6019 36.4664C93.6551 36.8333 92.6275 36.9403 91.6254 36.7762C90.2253 36.6223 88.9212 35.9896 87.9337 34.9851C86.9778 33.9219 86.4406 32.5477 86.422 31.1181C86.411 30.9521 86.411 30.7856 86.422 30.6197C86.422 30.2143 86.2358 30.0719 85.8743 30.2527C85.2498 30.5375 84.62 30.8004 84.0229 31.1455C83.8159 31.2807 83.6658 31.4874 83.6012 31.7261C82.933 34.1032 82.3743 36.5187 81.6184 38.8466C80.2052 43.2284 78.5128 47.4569 75.8289 51.2198C74.6656 53.0061 73.0598 54.461 71.1677 55.4428C69.5848 56.1987 68.0128 56.4342 66.4791 55.273C65.5878 54.5355 65.0022 53.4931 64.8359 52.3481C64.4799 50.705 64.9126 49.1165 65.3289 47.5555C66.3312 43.8419 68.314 40.6267 70.6254 37.6087C72.5816 35.0683 74.9451 32.8695 77.62 31.1017C77.8391 30.9428 78.0763 30.8104 78.3265 30.7073C78.8775 30.5134 79.3636 30.1698 79.7303 29.7151C80.097 29.2604 80.3297 28.7126 80.4024 28.133C81.0929 25.1954 81.52 22.202 81.6786 19.1885C81.7827 16.4937 81.9142 13.7934 81.9032 11.0986C81.9524 9.07565 81.5793 7.06469 80.8078 5.19403C80.0464 3.44129 78.8414 2.87713 77.0503 3.55083C75.4396 4.18457 73.9843 5.15788 72.7835 6.40451C70.7455 8.36503 69.0021 10.6103 67.6074 13.0704C66.7983 14.4951 66.0882 15.9738 65.4823 17.4961C64.8873 19.1198 64.4077 20.7836 64.0472 22.4749C63.8129 23.2882 63.7783 24.146 63.9461 24.9755C64.1139 25.8051 64.4793 26.5819 65.0112 27.2402C65.7397 28.122 66.7366 28.2425 67.7499 28.3356C68.2428 28.374 68.7577 28.2918 69.2397 28.3795C69.519 28.4288 69.7546 28.7081 70.0065 28.8834C69.8093 29.1518 69.6614 29.579 69.404 29.6611C66.5065 30.5539 63.001 29.6611 61.8727 26.1666C61.3142 24.218 61.2972 22.154 61.8234 20.1964C62.7169 16.5364 64.2504 13.0633 66.3531 9.93736C67.7601 7.6795 69.4275 5.59479 71.3211 3.72611C73.0683 2.04458 74.9744 0.571184 77.4611 0.105613C78.6846 -0.127735 79.9505 0.0277953 81.0812 0.550385C82.2118 1.07297 83.1505 1.9364 83.7655 3.01953C84.5269 4.47526 85.0361 6.04943 85.2718 7.67525C85.7641 10.2495 85.9298 12.8756 85.7647 15.4914C85.6004 18.4108 85.2498 21.3192 84.9431 24.2277C84.839 25.2191 84.62 26.194 84.4666 27.1799C84.379 27.7277 84.5104 27.8646 85.0691 27.6838C85.6517 27.5286 86.2198 27.3233 86.7671 27.0704C87.0753 26.8734 87.3205 26.592 87.4736 26.2597C88.2163 24.8151 89.2649 23.5497 90.5464 22.5516C92.5292 21.0289 95.6074 21.133 97.3163 22.6831C98.2369 23.5979 98.8167 24.8001 98.9595 26.0899C99.0691 26.6979 99.2937 26.7527 99.7921 26.561C100.69 26.2214 100.767 26.1666 100.74 25.2136C100.663 23.5898 100.848 21.9642 101.287 20.399C101.6 19.3474 101.983 19.0352 102.827 19.1283C103.173 19.1341 103.503 19.2768 103.744 19.5252C103.985 19.7736 104.118 20.1075 104.114 20.4538C104.114 21.0946 104.026 21.7355 104.021 22.3818C104.021 24.2715 104.021 26.1666 104.021 28.0563C104.021 28.2562 104.09 28.4499 104.218 28.604C104.656 27.9972 105.06 27.3663 105.428 26.7143C106.452 24.6549 107.444 22.5735 108.419 20.4921C108.742 19.8075 109.076 19.2324 109.974 19.3529C110.873 19.4734 111.744 19.813 112.094 20.7496C112.33 21.4138 112.488 22.1031 112.565 22.8036C112.784 24.5508 112.938 26.309 113.113 28.0618C113.158 28.2534 113.23 28.4378 113.327 28.6095C113.485 28.5286 113.638 28.439 113.787 28.3411C113.934 28.2261 114.044 28.0672 114.192 27.9522C114.586 27.6631 114.895 27.274 115.087 26.8252C115.28 26.3764 115.349 25.8843 115.287 25.3998C115.156 23.4718 115.873 21.6369 116.662 19.8841C117.133 18.8435 117.708 17.8576 118.234 16.8443C118.656 16.0336 119.368 16.1267 120.08 16.2582C120.393 16.2992 120.689 16.4221 120.939 16.6144C121.189 16.8068 121.384 17.0618 121.504 17.3536C121.574 17.5709 121.574 17.8046 121.504 18.0219C121.028 19.8075 120.518 21.5821 120.053 23.3732C119.538 25.345 119.056 27.3223 118.568 29.2942C118.553 29.4764 118.553 29.6596 118.568 29.8419C118.846 29.7533 119.115 29.6415 119.373 29.5078C121.037 28.3703 122.55 27.0268 123.876 25.5094C125.218 24.0524 126.488 22.5297 127.83 21.0727C128.488 20.3607 129.255 19.7417 129.945 19.0516C130.186 18.7955 130.393 18.5082 130.558 18.1971C130.898 17.5946 130.646 17.1017 130.01 17.266C128.984 17.5134 127.973 17.8188 126.981 18.1807C126.16 18.4546 125.377 18.6025 124.659 17.9233C124.248 17.5289 124.221 17.2332 124.725 16.9374C125.188 16.6627 125.683 16.4439 126.198 16.2856C127.841 15.809 129.485 15.3106 131.204 15.3654C132.782 15.4201 134.255 16.8826 134.069 18.3669C133.937 19.0781 133.633 19.7458 133.182 20.3114C132.218 21.615 131.144 22.831 130.131 24.0907C130.02 24.2754 129.935 24.4745 129.879 24.6823C130.068 24.7518 130.262 24.8049 130.46 24.8411C133.056 25.0602 135.488 25.6846 137.443 27.5798C137.673 27.7989 137.903 28.2918 138.424 27.9796C139.251 27.4812 139.557 26.9773 139.442 26.3364C139.047 24.2096 139.021 22.0307 139.366 19.8951C139.783 17.6242 140.52 15.424 141.557 13.3607C141.847 12.7472 142.652 12.5391 143.583 12.8129C144.783 13.1964 145.067 13.6291 144.87 14.8943C144.487 17.4139 144.082 19.9335 143.687 22.4585C143.677 22.5282 143.682 22.5993 143.701 22.6672C143.719 22.735 143.752 22.7983 143.797 22.8529C144.213 22.1299 144.646 21.4123 145.046 20.6619C146.045 18.7923 147.235 17.0303 148.595 15.4037C148.862 15.068 149.231 14.8289 149.646 14.723C150.062 14.6172 150.501 14.6504 150.895 14.8176C151.854 15.1134 152.632 15.5735 152.665 16.7128C152.665 17.4084 152.665 18.1095 152.665 18.8051L152.845 18.8873C153.037 18.6682 153.24 18.4601 153.393 18.23C154.817 16.4225 156.214 14.5876 157.671 12.8075C158.246 12.1064 158.914 12.0954 159.758 12.446C161.209 13.0485 161.806 14.0892 161.806 15.6666C161.752 18.0329 161.516 20.3914 161.1 22.7214C161.07 22.8209 161.057 22.9245 161.061 23.0281C161.105 23.2582 161.176 23.4828 161.242 23.7128C161.447 23.6391 161.643 23.5436 161.828 23.428C163.328 22.2402 164.644 20.8375 165.733 19.2652C167.13 17.3482 168.472 15.4311 169.852 13.4812C169.913 13.3935 169.951 13.2621 170.033 13.2347C170.312 13.1252 170.581 13.054 170.893 12.9663C170.92 13.2457 171.068 13.5907 170.959 13.7934C170.203 15.1791 169.447 16.5704 168.593 17.8959C167.409 19.7308 166.172 21.5274 164.906 23.302C164.478 23.9154 163.946 24.4492 163.334 24.8795C161.954 25.8161 160.316 25.482 158.952 24.0962C158.027 23.1449 157.486 21.8843 157.435 20.5579C157.37 19.2159 157.539 17.863 157.605 16.5156C157.605 16.4006 157.605 16.2801 157.605 15.9679C157.372 16.1746 157.156 16.3999 156.959 16.6416C155.557 18.807 154.165 20.9723 152.785 23.1377C152.604 23.417 152.396 23.6854 152.237 23.9702C152.092 24.2286 151.859 24.4262 151.581 24.5268C151.302 24.6274 150.997 24.6243 150.72 24.518C150.418 24.4753 150.136 24.3452 149.907 24.1437C149.678 23.9422 149.513 23.6782 149.433 23.3842C149.301 22.7762 149.258 22.1518 149.165 21.5328C149.131 21.2295 149.022 20.9395 148.847 20.6893C148.299 21.604 147.751 22.5297 147.204 23.428C146.426 24.6987 145.621 25.953 144.854 27.2621C144.306 28.1987 143.435 28.4014 142.449 28.3575C142.366 28.3565 142.284 28.3474 142.203 28.3302C141.047 27.9632 140.297 28.5164 139.749 29.453C139.608 29.6659 139.557 29.9257 139.607 30.176C141.14 33.8403 139.891 37.0446 137.991 40.1392C136.735 42.2328 135.027 44.0184 132.99 45.3646C131.517 46.3929 129.796 47.0093 128.006 47.1502C127.285 47.1885 126.565 47.0557 125.905 46.7624C125.246 46.4692 124.665 46.024 124.21 45.4632C123.531 44.6963 123.662 43.7762 123.936 42.8669C124.416 41.471 125.16 40.1805 126.127 39.0657C127.525 37.3371 129.106 35.7651 130.843 34.3771C132.793 32.8654 134.677 31.2386 136.567 29.6721C136.923 29.3818 136.808 29.1244 136.501 29.0093C135.882 28.7185 135.234 28.4944 134.567 28.3411C133.056 28.0727 131.528 27.9029 130.005 27.6893C128.595 27.5358 127.235 27.0799 126.017 26.3528C125.568 26.0625 125.3 26.1666 124.955 26.5281C123.728 27.8208 122.506 29.1298 121.197 30.3622C119.603 31.8411 117.33 31.4303 116.049 29.5297C115.611 28.8834 115.6 28.8724 115.063 29.4256C114.501 29.9775 113.97 30.5608 113.474 31.1729C113.265 31.5022 113.143 31.879 113.118 32.2683C112.916 33.9827 112.872 35.719 112.571 37.4006C111.897 40.928 110.977 44.3951 108.78 47.3364C107.685 48.7934 106.436 50.0751 104.524 50.4749C103.64 50.6501 102.722 50.5127 101.928 50.086C101.541 49.8789 101.217 49.571 100.991 49.195C100.764 48.819 100.643 48.3888 100.641 47.9499C100.576 46.3425 100.902 44.7433 101.589 43.2887C102.409 41.3255 103.493 39.4829 104.809 37.8114C105.801 36.5133 106.891 35.2809 107.931 34.0211C107.986 33.9553 108.019 33.8677 108.085 33.8294C109.492 32.9859 109.695 31.6385 109.728 30.1596C109.772 28.4342 109.821 26.7089 109.859 24.989C109.848 24.7736 109.821 24.5594 109.777 24.3482L109.58 24.3427ZM78.8085 34.4812C78.6467 34.542 78.4924 34.621 78.3484 34.7167C76.9901 36.0532 75.566 37.3349 74.3062 38.7535C72.6731 40.6656 71.3093 42.7923 70.253 45.0743C69.3002 46.8771 68.6629 48.8296 68.3688 50.8474C68.3086 51.3951 68.0675 52.1181 68.6865 52.4412C69.3054 52.7644 69.7326 52.2331 70.1708 51.8935C72.2632 50.2503 73.5941 48.0046 74.8211 45.7316C76.415 42.6964 77.6309 39.4773 78.4416 36.1463C78.573 35.6424 78.6661 35.1275 78.8085 34.5031V34.4812ZM137.416 31.9178C137.043 32.2026 136.791 32.3669 136.567 32.5586C135.751 33.2652 134.924 33.9444 134.135 34.6948C132.3 36.4694 130.438 38.2112 128.712 40.0845C127.505 41.3359 126.678 42.9051 126.33 44.6087C126.226 45.1564 126.384 45.3536 126.877 45.2276C128.261 44.8352 129.542 44.1434 130.629 43.201C132.178 41.9789 133.546 40.5443 134.693 38.9397C136.035 37.0336 137.153 35.0508 137.432 32.6791C137.432 32.4874 137.432 32.2957 137.432 31.9233L137.416 31.9178ZM109.481 36.0148L109.328 35.9053C109.132 36.0738 108.949 36.2569 108.78 36.453C106.781 38.9287 104.897 41.4812 103.703 44.4608C103.159 45.6606 102.969 46.9908 103.155 48.2949C103.281 48.9906 103.539 49.1056 104.042 48.6236C104.717 47.9824 105.342 47.2903 105.91 46.5531C106.864 45.2459 107.613 43.8018 108.134 42.2699C108.782 40.2343 109.225 38.1388 109.454 36.0148H109.481ZM91.483 29.2503C91.1953 29.2202 90.9053 29.2202 90.6176 29.2503C90.5139 29.2706 90.4155 29.3122 90.3288 29.3726C90.242 29.4329 90.1688 29.5107 90.1137 29.6009C89.9292 30.2778 90.0212 31.0003 90.3694 31.6095C90.7176 32.2186 91.2936 32.6644 91.9705 32.8489C92.3079 32.9384 92.6593 32.9626 93.0057 32.9201C93.7734 32.7327 94.4714 32.3293 95.0169 31.7575C95.5624 31.1858 95.9327 30.4697 96.084 29.694C96.084 29.568 95.8758 29.2832 95.7553 29.2832C94.3312 29.2503 92.9071 29.2832 91.483 29.2832V29.2503ZM95.6074 27.5359C96.5057 27.4812 96.7029 27.3497 96.6481 26.5665C96.5857 25.8276 96.4198 25.1011 96.1552 24.4084C96.0397 23.995 95.767 23.6431 95.3954 23.4282C95.0238 23.2132 94.5829 23.1522 94.1669 23.2582C94.0978 23.2751 94.0301 23.2971 93.9642 23.3239C92.5018 23.7237 91.7076 24.8576 91.0722 26.1228C90.9079 26.4514 91.1708 26.5391 91.4447 26.5938C92.3758 26.7856 93.3015 26.9937 94.2271 27.2018C94.6872 27.3059 95.1473 27.4209 95.6074 27.5359Z" fill="white"/>
<path d="M120.47 13.8743C119.002 14.1043 117.354 12.4831 117.447 10.6865C117.494 9.88385 117.853 9.13146 118.447 8.5892C119.041 8.04694 119.823 7.75754 120.626 7.7825C121.43 7.80746 122.192 8.1448 122.751 8.72285C123.31 9.30091 123.622 10.0741 123.62 10.8782C123.617 11.6753 123.298 12.4387 122.733 13.0013C122.169 13.5639 121.404 13.8798 120.607 13.8798L120.47 13.8743Z" fill="white"/>
<path d="M21.0045 158.279C20.0373 158.279 19.0987 158.159 18.1884 157.92C17.2782 157.681 16.5386 157.363 15.9697 156.964L17.0791 154.473C17.6138 154.825 18.2339 155.11 18.9394 155.326C19.6448 155.542 20.3389 155.65 21.0215 155.65C22.3186 155.65 22.9672 155.326 22.9672 154.677C22.9672 154.336 22.7794 154.086 22.404 153.927C22.0399 153.756 21.4482 153.58 20.629 153.397C19.7301 153.204 18.9792 152.999 18.3762 152.783C17.7731 152.555 17.2554 152.197 16.8231 151.708C16.3907 151.219 16.1745 150.559 16.1745 149.728C16.1745 149 16.3736 148.346 16.7719 147.765C17.1701 147.174 17.7618 146.707 18.5468 146.366C19.3433 146.025 20.3161 145.854 21.4653 145.854C22.2504 145.854 23.0241 145.945 23.7864 146.127C24.5487 146.298 25.22 146.554 25.8003 146.895L24.7592 149.404C23.6214 148.789 22.5177 148.482 21.4482 148.482C20.7769 148.482 20.2877 148.585 19.9805 148.789C19.6732 148.983 19.5196 149.239 19.5196 149.557C19.5196 149.876 19.7017 150.115 20.0658 150.274C20.4299 150.434 21.0158 150.598 21.8237 150.769C22.7339 150.963 23.4849 151.173 24.0765 151.401C24.6795 151.617 25.1972 151.97 25.6296 152.459C26.0733 152.937 26.2952 153.591 26.2952 154.421C26.2952 155.138 26.0961 155.787 25.6979 156.367C25.2996 156.947 24.7023 157.414 23.9058 157.767C23.1094 158.108 22.1423 158.279 21.0045 158.279Z" fill="white"/>
<path d="M41.851 146.093C42.932 146.093 43.8706 146.275 44.6671 146.639C45.4635 146.992 46.078 147.504 46.5103 148.175C46.9427 148.835 47.1589 149.614 47.1589 150.513C47.1589 151.412 46.9427 152.191 46.5103 152.851C46.078 153.511 45.4635 154.023 44.6671 154.387C43.8706 154.74 42.932 154.916 41.851 154.916H39.7689V158.04H36.3896V146.093H41.851ZM41.6462 152.254C42.3403 152.254 42.8637 152.106 43.2164 151.81C43.5691 151.503 43.7455 151.071 43.7455 150.513C43.7455 149.956 43.5691 149.523 43.2164 149.216C42.8637 148.909 42.3403 148.755 41.6462 148.755H39.7689V152.254H41.6462Z" fill="white"/>
<path d="M62.5624 154.865H60.7192V158.04H57.3399V146.093H62.8014C63.8823 146.093 64.8209 146.275 65.6174 146.639C66.4139 146.992 67.0283 147.504 67.4606 148.175C67.893 148.835 68.1092 149.614 68.1092 150.513C68.1092 151.378 67.9044 152.135 67.4948 152.783C67.0965 153.42 66.522 153.921 65.771 154.285L68.3481 158.04H64.7299L62.5624 154.865ZM64.6958 150.513C64.6958 149.956 64.5194 149.523 64.1667 149.216C63.814 148.909 63.2906 148.755 62.5966 148.755H60.7192V152.254H62.5966C63.2906 152.254 63.814 152.106 64.1667 151.81C64.5194 151.503 64.6958 151.071 64.6958 150.513Z" fill="white"/>
<path d="M78.5069 146.093H81.8862V158.04H78.5069V146.093Z" fill="white"/>
<path d="M104.19 146.093V158.04H101.408L96.1348 151.674V158.04H92.8238V146.093H95.6057L100.879 152.459V146.093H104.19Z" fill="white"/>
<path d="M123.112 151.81H126.099V156.76C125.416 157.249 124.631 157.624 123.743 157.886C122.856 158.148 121.968 158.279 121.081 158.279C119.829 158.279 118.703 158.017 117.702 157.494C116.7 156.959 115.915 156.219 115.346 155.275C114.778 154.33 114.493 153.261 114.493 152.066C114.493 150.872 114.778 149.802 115.346 148.858C115.915 147.913 116.706 147.179 117.719 146.656C118.731 146.121 119.875 145.854 121.149 145.854C122.264 145.854 123.265 146.042 124.153 146.417C125.04 146.793 125.78 147.333 126.372 148.038L124.221 149.984C123.413 149.097 122.446 148.653 121.32 148.653C120.296 148.653 119.471 148.966 118.845 149.592C118.219 150.206 117.906 151.031 117.906 152.066C117.906 152.726 118.049 153.318 118.333 153.841C118.618 154.353 119.016 154.757 119.528 155.053C120.04 155.337 120.626 155.48 121.286 155.48C121.934 155.48 122.543 155.349 123.112 155.087V151.81Z" fill="white"/>
<path d="M158.893 155.36V158.04H149.592V155.923L154.064 151.742C154.496 151.332 154.786 150.985 154.934 150.701C155.082 150.405 155.156 150.109 155.156 149.813C155.156 149.427 155.025 149.125 154.763 148.909C154.502 148.693 154.12 148.585 153.62 148.585C153.176 148.585 152.766 148.687 152.391 148.892C152.027 149.085 151.725 149.37 151.486 149.745L148.978 148.346C149.444 147.572 150.098 146.963 150.94 146.519C151.782 146.076 152.778 145.854 153.927 145.854C154.837 145.854 155.639 146.002 156.333 146.298C157.039 146.593 157.585 147.02 157.972 147.578C158.37 148.124 158.569 148.761 158.569 149.489C158.569 150.138 158.427 150.752 158.143 151.332C157.869 151.901 157.335 152.55 156.538 153.278L154.285 155.36H158.893Z" fill="white"/>
<path d="M173.668 158.279C172.644 158.279 171.733 158.034 170.937 157.545C170.14 157.055 169.515 156.344 169.059 155.411C168.616 154.467 168.394 153.352 168.394 152.066C168.394 150.781 168.616 149.671 169.059 148.738C169.515 147.794 170.14 147.077 170.937 146.588C171.733 146.099 172.644 145.854 173.668 145.854C174.68 145.854 175.585 146.099 176.381 146.588C177.178 147.077 177.798 147.794 178.242 148.738C178.697 149.671 178.924 150.781 178.924 152.066C178.924 153.352 178.697 154.467 178.242 155.411C177.798 156.344 177.178 157.055 176.381 157.545C175.585 158.034 174.68 158.279 173.668 158.279ZM173.668 155.514C174.236 155.514 174.686 155.241 175.016 154.695C175.357 154.137 175.528 153.261 175.528 152.066C175.528 150.872 175.357 150.001 175.016 149.455C174.686 148.897 174.236 148.619 173.668 148.619C173.087 148.619 172.626 148.897 172.285 149.455C171.955 150.001 171.79 150.872 171.79 152.066C171.79 153.261 171.955 154.137 172.285 154.695C172.626 155.241 173.087 155.514 173.668 155.514Z" fill="white"/>
<path d="M197.711 155.36V158.04H188.409V155.923L192.881 151.742C193.313 151.332 193.603 150.985 193.751 150.701C193.899 150.405 193.973 150.109 193.973 149.813C193.973 149.427 193.842 149.125 193.581 148.909C193.319 148.693 192.938 148.585 192.437 148.585C191.993 148.585 191.584 148.687 191.208 148.892C190.844 149.085 190.543 149.37 190.304 149.745L187.795 148.346C188.261 147.572 188.916 146.963 189.758 146.519C190.6 146.076 191.595 145.854 192.744 145.854C193.654 145.854 194.457 146.002 195.151 146.298C195.856 146.593 196.402 147.02 196.789 147.578C197.187 148.124 197.386 148.761 197.386 149.489C197.386 150.138 197.244 150.752 196.96 151.332C196.687 151.901 196.152 152.55 195.355 153.278L193.103 155.36H197.711Z" fill="white"/>
<path d="M213.355 150.872C214.345 151.076 215.101 151.486 215.625 152.1C216.159 152.703 216.427 153.437 216.427 154.302C216.427 155.007 216.233 155.662 215.847 156.265C215.471 156.868 214.891 157.357 214.106 157.732C213.332 158.097 212.371 158.279 211.221 158.279C210.379 158.279 209.543 158.176 208.713 157.971C207.893 157.767 207.182 157.476 206.579 157.101L207.808 154.558C208.275 154.877 208.798 155.121 209.378 155.292C209.97 155.463 210.55 155.548 211.119 155.548C211.699 155.548 212.16 155.44 212.501 155.224C212.843 155.007 213.013 154.7 213.013 154.302C213.013 153.528 212.405 153.141 211.187 153.141H209.771V151.008L211.904 148.704H207.194V146.093H215.829V148.209L213.355 150.872Z" fill="white"/>
</svg>
