<svg width="208" height="80" viewBox="0 0 208 80" fill="none" xmlns="http://www.w3.org/2000/svg">
<path d="M193.6 52.8H13.6C6.08893 52.8 0 58.8889 0 66.4C0 73.9111 6.08892 80 13.6 80H193.6C201.111 80 207.2 73.9111 207.2 66.4C207.2 58.8889 201.111 52.8 193.6 52.8Z" fill="#FFB700"/>
<path d="M19.7136 12.9435C20.4188 13.8657 20.7768 14.9832 20.7768 16.296C20.7768 18.2055 20.0065 19.681 18.4659 20.7226C16.9252 21.7641 14.7011 22.2849 11.7934 22.2849H0V0.455688H11.1641C13.9525 0.455688 16.0681 0.96561 17.522 1.99631C18.9758 3.02702 19.7027 4.41576 19.7027 6.16253C19.7027 7.20408 19.4532 8.13713 18.9432 8.95085C18.4333 9.77541 17.7064 10.4264 16.7733 10.9038C18.0319 11.3377 19.0083 12.0104 19.7136 12.9435ZM6.11912 4.90399V9.11359H10.3613C12.4444 9.11359 13.4859 8.40837 13.4859 6.99794C13.4859 5.6092 12.4444 4.90399 10.3613 4.90399H6.11912ZM14.5383 15.6016C14.5383 14.1261 13.4534 13.3883 11.2943 13.3883H6.11912V17.8149H11.2943C13.4534 17.8258 14.5383 17.088 14.5383 15.6016Z" fill="white"/>
<path d="M38.6785 18.0427H29.4455L27.7313 22.2849H21.4277L31.0621 0.455688H37.1487L46.8156 22.2849H40.3927L38.6785 18.0427ZM36.8666 13.4859L34.0566 6.49886L31.2465 13.4859H36.8666Z" fill="white"/>
<path d="M48.6274 0.444824H58.9562C61.3431 0.444824 63.4696 0.889644 65.314 1.79015C67.1693 2.67981 68.6014 3.94922 69.6213 5.59834C70.6411 7.23662 71.151 9.16782 71.151 11.3703C71.151 13.5727 70.6411 15.4931 69.6213 17.1422C68.6014 18.7805 67.1693 20.0499 65.314 20.9504C63.4587 21.8401 61.3431 22.2957 58.9562 22.2957H48.6274V0.444824ZM58.7066 17.3484C60.5728 17.3484 62.0808 16.8167 63.2092 15.7535C64.3375 14.6902 64.9126 13.2255 64.9126 11.3594C64.9126 9.49331 64.3484 8.01778 63.2092 6.96538C62.0808 5.90213 60.5728 5.37049 58.7066 5.37049H54.8117V17.3484H58.7066Z" fill="white"/>
<path d="M94.1739 22.2849L94.1088 10.7085L88.4887 20.1258H85.7438L80.1563 11.0231V22.2849H74.4495V0.455688H79.5379L87.2085 13.0628L94.6946 0.455688H99.7831L99.8482 22.2849H94.1739Z" fill="white"/>
<path d="M104.275 0.444824H110.448V22.274H104.275V0.444824Z" fill="white"/>
<path d="M135.684 0.444824V22.274H130.606L120.972 10.6434V22.274H114.918V0.444824H120.006L129.641 12.0755V0.444824H135.684Z" fill="white"/>
<path d="M144.765 5.34881H138.06V0.455688H157.622V5.34881H150.949V22.2849H144.776V5.34881H144.765Z" fill="white"/>
<path d="M164.457 21.2542C162.613 20.2777 161.17 18.9215 160.117 17.1965C159.065 15.4714 158.544 13.5293 158.544 11.3594C158.544 9.20039 159.065 7.24747 160.117 5.5224C161.17 3.79733 162.613 2.44114 164.457 1.46468C166.301 0.488228 168.374 0 170.685 0C172.995 0 175.068 0.488228 176.912 1.46468C178.757 2.44114 180.2 3.79733 181.252 5.5224C182.304 7.24747 182.825 9.18954 182.825 11.3594C182.825 13.5185 182.304 15.4714 181.252 17.1965C180.2 18.9215 178.757 20.2777 176.912 21.2542C175.068 22.2306 172.995 22.7189 170.685 22.7189C168.374 22.7189 166.301 22.2306 164.457 21.2542ZM173.679 16.8276C174.569 16.3068 175.285 15.5799 175.795 14.6251C176.315 13.6812 176.576 12.5963 176.576 11.3703C176.576 10.1443 176.315 9.05935 175.795 8.11544C175.274 7.17153 174.569 6.43376 173.679 5.91298C172.789 5.39221 171.791 5.13182 170.685 5.13182C169.578 5.13182 168.58 5.39221 167.69 5.91298C166.8 6.43376 166.084 7.16068 165.564 8.11544C165.043 9.05935 164.782 10.1443 164.782 11.3703C164.782 12.5963 165.043 13.6812 165.564 14.6251C166.084 15.5691 166.79 16.3068 167.69 16.8276C168.58 17.3484 169.578 17.6088 170.685 17.6088C171.791 17.5979 172.789 17.3375 173.679 16.8276Z" fill="white"/>
<path d="M206.9 0.444824V22.274H201.812L192.178 10.6434V22.274H186.124V0.444824H191.212L200.846 12.0755V0.444824H206.9Z" fill="white"/>
<path d="M4.52425 45.7849C3.11381 45.0038 2.00716 43.9405 1.2043 42.5735C0.401432 41.2064 0 39.6766 0 37.9733C0 36.2699 0.401432 34.7293 1.2043 33.3731C2.00716 32.0061 3.11381 30.9428 4.5351 30.1616C5.95638 29.3805 7.54041 29.0007 9.29803 29.0007C10.6651 29.0007 11.9236 29.2286 13.0628 29.6951C14.202 30.1508 15.1676 30.8343 15.9705 31.7348L14.3431 33.3188C13.0194 31.9301 11.3703 31.2357 9.40653 31.2357C8.10458 31.2357 6.92199 31.5287 5.86959 32.1145C4.81718 32.7004 3.99262 33.5033 3.3959 34.534C2.79917 35.5647 2.50624 36.7147 2.50624 37.9841C2.50624 39.2535 2.79917 40.4036 3.3959 41.4343C3.99262 42.465 4.81718 43.2678 5.86959 43.8537C6.92199 44.4396 8.10458 44.7325 9.40653 44.7325C11.3594 44.7325 13.0086 44.0273 14.3431 42.6277L15.9705 44.2117C15.1676 45.1123 14.1912 45.7958 13.052 46.2731C11.9019 46.7397 10.6434 46.9784 9.27633 46.9784C7.51871 46.9567 5.93468 46.5661 4.52425 45.7849Z" fill="white"/>
<path d="M41.1521 42.3673H31.8215L29.8903 46.7613H27.3081L35.2608 29.2068H37.7453L45.7197 46.7613H43.0833L41.1521 42.3673ZM40.2733 40.3601L36.4868 31.7565L32.7003 40.3601H40.2733Z" fill="white"/>
<path d="M70.8908 46.7505L67.1043 41.3583C66.6378 41.3908 66.2689 41.4125 65.9977 41.4125H61.6579V46.7505H59.1516V29.196H65.9977C68.2761 29.196 70.0554 29.7385 71.3682 30.8234C72.6701 31.9084 73.3211 33.4056 73.3211 35.3151C73.3211 36.6713 72.9847 37.8213 72.3229 38.7761C71.6502 39.7309 70.7063 40.4252 69.4586 40.8592L73.6249 46.7505H70.8908ZM69.5671 38.2553C70.4026 37.5718 70.8257 36.5954 70.8257 35.326C70.8257 34.0566 70.4026 33.0801 69.5671 32.4074C68.7317 31.7348 67.5166 31.3876 65.9326 31.3876H61.6687V39.286H65.9326C67.5166 39.2752 68.7317 38.9388 69.5671 38.2553Z" fill="white"/>
<path d="M103.32 29.196V46.7505H101.258L90.7235 33.6551V46.7505H88.2173V29.196H90.2787L100.814 42.2913V29.196H103.32Z" fill="white"/>
<path d="M119.42 29.196H121.927V46.7505H119.42V29.196Z" fill="white"/>
<path d="M153.098 29.196L145.394 46.7505H142.91L135.185 29.196H137.897L144.223 43.615L150.591 29.196H153.098Z" fill="white"/>
<path d="M176.803 42.3673H167.473L165.542 46.7613H162.959L170.912 29.2068H173.397L181.371 46.7613H178.735L176.803 42.3673ZM175.925 40.3601L172.138 31.7565L168.352 40.3601H175.925Z" fill="white"/>
<path d="M194.803 29.196H197.309V44.5697H206.813V46.7505H194.803V29.196Z" fill="white"/>
<path d="M28.6902 71.2C27.9429 71.2 27.2176 71.1077 26.5143 70.9231C25.811 70.7384 25.2396 70.4923 24.8 70.1846L25.6572 68.2593C26.0704 68.5318 26.5495 68.7516 27.0946 68.9187C27.6396 69.0857 28.1759 69.1692 28.7033 69.1692C29.7055 69.1692 30.2066 68.9187 30.2066 68.4176C30.2066 68.1538 30.0616 67.9604 29.7715 67.8373C29.4902 67.7055 29.033 67.5692 28.4 67.4285C27.7055 67.2791 27.1253 67.1209 26.6594 66.9538C26.1935 66.778 25.7935 66.5011 25.4594 66.1231C25.1253 65.745 24.9583 65.2351 24.9583 64.5934C24.9583 64.0307 25.1121 63.5253 25.4198 63.0769C25.7275 62.6198 26.1847 62.2593 26.7913 61.9956C27.4066 61.7318 28.1583 61.6 29.0462 61.6C29.6528 61.6 30.2506 61.6703 30.8396 61.811C31.4286 61.9428 31.9473 62.1406 32.3957 62.4044L31.5913 64.3428C30.7121 63.8681 29.8594 63.6307 29.033 63.6307C28.5143 63.6307 28.1363 63.7099 27.8989 63.8681C27.6616 64.0176 27.5429 64.2154 27.5429 64.4615C27.5429 64.7077 27.6836 64.8923 27.9649 65.0154C28.2462 65.1384 28.6989 65.2659 29.3231 65.3978C30.0264 65.5472 30.6066 65.7099 31.0638 65.8857C31.5297 66.0527 31.9297 66.3253 32.2638 66.7033C32.6066 67.0725 32.7781 67.578 32.7781 68.2198C32.7781 68.7736 32.6242 69.2747 32.3165 69.7231C32.0088 70.1714 31.5473 70.5318 30.9319 70.8044C30.3165 71.0681 29.5693 71.2 28.6902 71.2Z" fill="#222222"/>
<path d="M44.8369 71.2C43.4655 71.2 42.3973 70.8263 41.6325 70.0791C40.8765 69.3318 40.4984 68.2725 40.4984 66.9011V61.7846H43.1094V66.822C43.1094 68.2989 43.694 69.0373 44.8633 69.0373C46.0237 69.0373 46.6039 68.2989 46.6039 66.822V61.7846H49.1754V66.9011C49.1754 68.2725 48.7929 69.3318 48.0281 70.0791C47.2721 70.8263 46.2083 71.2 44.8369 71.2Z" fill="#222222"/>
<path d="M65.8716 71.0154L65.8452 66.1231L63.4716 70.1055H62.3112L59.9507 66.2549V71.0154H57.5375V61.7846H59.687L62.931 67.1121L66.0958 61.7846H68.2452L68.2716 71.0154H65.8716Z" fill="#222222"/>
<path d="M85.0466 71.0154L85.0202 66.1231L82.6466 70.1055H81.4861L79.1257 66.2549V71.0154H76.7125V61.7846H78.862L82.1059 67.1121L85.2708 61.7846H87.4202L87.4466 71.0154H85.0466Z" fill="#222222"/>
<path d="M103.298 68.9978V71.0154H95.8875V61.7846H103.127V63.8022H98.4721V65.3582H102.573V67.3099H98.4721V68.9978H103.298Z" fill="#222222"/>
<path d="M115.376 68.5626H113.952V71.0154H111.341V61.7846H115.561C116.396 61.7846 117.121 61.9253 117.736 62.2066C118.352 62.4791 118.826 62.8747 119.161 63.3934C119.495 63.9033 119.662 64.5055 119.662 65.2C119.662 65.8681 119.503 66.4527 119.187 66.9538C118.879 67.4461 118.435 67.8329 117.855 68.1143L119.846 71.0154H117.051L115.376 68.5626ZM117.024 65.2C117.024 64.7692 116.888 64.4351 116.615 64.1978C116.343 63.9604 115.939 63.8417 115.402 63.8417H113.952V66.545H115.402C115.939 66.545 116.343 66.4307 116.615 66.2022C116.888 65.9648 117.024 65.6307 117.024 65.2Z" fill="#222222"/>
<path d="M137.841 68.945V71.0154H130.654V69.3802L134.109 66.1494C134.443 65.8329 134.667 65.5648 134.781 65.345C134.895 65.1165 134.953 64.8879 134.953 64.6593C134.953 64.3604 134.851 64.1274 134.649 63.9604C134.447 63.7934 134.153 63.7099 133.766 63.7099C133.423 63.7099 133.106 63.789 132.816 63.9472C132.535 64.0967 132.302 64.3165 132.117 64.6066L130.179 63.5253C130.539 62.9274 131.045 62.4571 131.695 62.1143C132.346 61.7714 133.115 61.6 134.003 61.6C134.706 61.6 135.326 61.7143 135.862 61.9428C136.408 62.1714 136.83 62.5011 137.128 62.9318C137.436 63.3538 137.59 63.8461 137.59 64.4088C137.59 64.9099 137.48 65.3846 137.26 65.8329C137.049 66.2725 136.636 66.7736 136.021 67.3362L134.28 68.945H137.841Z" fill="#222222"/>
<path d="M149.256 71.2C148.465 71.2 147.761 71.011 147.146 70.6329C146.53 70.2549 146.047 69.7055 145.695 68.9846C145.352 68.2549 145.181 67.3934 145.181 66.4C145.181 65.4066 145.352 64.5494 145.695 63.8285C146.047 63.0989 146.53 62.545 147.146 62.167C147.761 61.789 148.465 61.6 149.256 61.6C150.038 61.6 150.737 61.789 151.352 62.167C151.968 62.545 152.447 63.0989 152.79 63.8285C153.141 64.5494 153.317 65.4066 153.317 66.4C153.317 67.3934 153.141 68.2549 152.79 68.9846C152.447 69.7055 151.968 70.2549 151.352 70.6329C150.737 71.011 150.038 71.2 149.256 71.2ZM149.256 69.0637C149.695 69.0637 150.043 68.8527 150.298 68.4307C150.561 68 150.693 67.3231 150.693 66.4C150.693 65.4769 150.561 64.8044 150.298 64.3824C150.043 63.9516 149.695 63.7362 149.256 63.7362C148.807 63.7362 148.451 63.9516 148.188 64.3824C147.933 64.8044 147.805 65.4769 147.805 66.4C147.805 67.3231 147.933 68 148.188 68.4307C148.451 68.8527 148.807 69.0637 149.256 69.0637Z" fill="#222222"/>
<path d="M167.833 68.945V71.0154H160.646V69.3802L164.101 66.1494C164.435 65.8329 164.659 65.5648 164.773 65.345C164.888 65.1165 164.945 64.8879 164.945 64.6593C164.945 64.3604 164.844 64.1274 164.642 63.9604C164.439 63.7934 164.145 63.7099 163.758 63.7099C163.415 63.7099 163.099 63.789 162.809 63.9472C162.527 64.0967 162.294 64.3165 162.11 64.6066L160.171 63.5253C160.532 62.9274 161.037 62.4571 161.688 62.1143C162.338 61.7714 163.108 61.6 163.995 61.6C164.699 61.6 165.318 61.7143 165.855 61.9428C166.4 62.1714 166.822 62.5011 167.121 62.9318C167.428 63.3538 167.582 63.8461 167.582 64.4088C167.582 64.9099 167.472 65.3846 167.253 65.8329C167.042 66.2725 166.628 66.7736 166.013 67.3362L164.272 68.945H167.833Z" fill="#222222"/>
<path d="M179.92 65.4769C180.685 65.6351 181.27 65.9516 181.674 66.4263C182.087 66.8923 182.294 67.4593 182.294 68.1274C182.294 68.6725 182.144 69.178 181.846 69.6439C181.555 70.1099 181.107 70.4879 180.5 70.778C179.903 71.0593 179.16 71.2 178.272 71.2C177.621 71.2 176.975 71.1209 176.333 70.9626C175.7 70.8044 175.151 70.5802 174.685 70.2901L175.635 68.3252C175.995 68.5714 176.399 68.7604 176.848 68.8923C177.305 69.0242 177.753 69.0901 178.193 69.0901C178.641 69.0901 178.997 69.0066 179.261 68.8395C179.525 68.6725 179.657 68.4351 179.657 68.1274C179.657 67.5296 179.186 67.2307 178.246 67.2307H177.151V65.5824L178.799 63.8022H175.16V61.7846H181.832V63.4198L179.92 65.4769Z" fill="#222222"/>
</svg>
