<svg width="221" height="50" viewBox="0 0 221 50" fill="none" xmlns="http://www.w3.org/2000/svg">
<path d="M20.9815 13.776C21.7321 14.7575 22.1132 15.9469 22.1132 17.3441C22.1132 19.3765 21.2933 20.9469 19.6536 22.0554C18.0139 23.164 15.6467 23.7183 12.552 23.7183H0V0.484997H11.8822C14.8499 0.484997 17.1016 1.02772 18.649 2.12471C20.1963 3.22171 20.97 4.69978 20.97 6.5589C20.97 7.66744 20.7044 8.66051 20.1617 9.52656C19.6189 10.4042 18.8453 11.097 17.8522 11.6051C19.1917 12.067 20.231 12.7829 20.9815 13.776ZM6.5127 5.21941V9.69977H11.0277C13.2448 9.69977 14.3534 8.94919 14.3534 7.44804C14.3534 5.96998 13.2448 5.21941 11.0277 5.21941H6.5127ZM15.4734 16.6051C15.4734 15.0347 14.3187 14.2494 12.0208 14.2494H6.5127V18.9608H12.0208C14.3187 18.9723 15.4734 18.1871 15.4734 16.6051Z" fill="white"/>
<path d="M41.1662 19.2032H31.3394L29.5149 23.7183H22.8059L33.06 0.484997H39.538L49.8267 23.7183H42.9907L41.1662 19.2032ZM39.2378 14.3534L36.247 6.91686L33.2563 14.3534H39.2378Z" fill="white"/>
<path d="M51.7549 0.473434H62.748C65.2884 0.473434 67.5517 0.946864 69.5147 1.90529C71.4893 2.85218 73.0136 4.20323 74.099 5.95842C75.1845 7.70207 75.7272 9.7575 75.7272 12.1016C75.7272 14.4457 75.1845 16.4896 74.099 18.2448C73.0136 19.9884 71.4893 21.3395 69.5147 22.2979C67.5401 23.2448 65.2884 23.7298 62.748 23.7298H51.7549V0.473434ZM62.4824 18.4642C64.4685 18.4642 66.0736 17.8984 67.2745 16.7667C68.4754 15.6351 69.0875 14.0762 69.0875 12.0901C69.0875 10.1039 68.487 8.53348 67.2745 7.41339C66.0736 6.28175 64.4685 5.71592 62.4824 5.71592H58.3369V18.4642H62.4824Z" fill="white"/>
<path d="M100.231 23.7183L100.162 11.3972L94.1801 21.4203H91.2586L85.3117 11.7321V23.7183H79.2378V0.484997H84.6535L92.8175 13.903L100.785 0.484997H106.201L106.27 23.7183H100.231Z" fill="white"/>
<path d="M110.982 0.473434H117.552V23.7067H110.982V0.473434Z" fill="white"/>
<path d="M144.411 0.473434V23.7067H139.007L128.753 11.3279V23.7067H122.309V0.473434H127.725L137.979 12.8522V0.473434H144.411Z" fill="white"/>
<path d="M154.076 5.69285H146.94V0.484997H167.76V5.69285H160.658V23.7183H154.088V5.69285H154.076Z" fill="white"/>
<path d="M175.035 22.6213C173.072 21.582 171.536 20.1386 170.416 18.3025C169.296 16.4665 168.741 14.3996 168.741 12.0901C168.741 9.79216 169.296 7.71363 170.416 5.8776C171.536 4.04157 173.072 2.59815 175.035 1.55889C176.998 0.519631 179.203 0 181.663 0C184.123 0 186.328 0.519631 188.291 1.55889C190.254 2.59815 191.79 4.04157 192.91 5.8776C194.03 7.71363 194.584 9.78061 194.584 12.0901C194.584 14.388 194.03 16.4665 192.91 18.3025C191.79 20.1386 190.254 21.582 188.291 22.6213C186.328 23.6605 184.123 24.1801 181.663 24.1801C179.203 24.1801 176.998 23.6605 175.035 22.6213ZM184.85 17.9099C185.797 17.3557 186.559 16.582 187.102 15.5658C187.656 14.5612 187.933 13.4065 187.933 12.1016C187.933 10.7968 187.656 9.64204 187.102 8.63742C186.547 7.6328 185.797 6.84758 184.85 6.2933C183.903 5.73903 182.841 5.4619 181.663 5.4619C180.485 5.4619 179.423 5.73903 178.476 6.2933C177.529 6.84758 176.767 7.62126 176.213 8.63742C175.658 9.64204 175.381 10.7968 175.381 12.1016C175.381 13.4065 175.658 14.5612 176.213 15.5658C176.767 16.5704 177.517 17.3557 178.476 17.9099C179.423 18.4642 180.485 18.7414 181.663 18.7414C182.841 18.7298 183.903 18.4527 184.85 17.9099Z" fill="white"/>
<path d="M220.208 0.473434V23.7067H214.792L204.538 11.3279V23.7067H198.095V0.473434H203.511L213.765 12.8522V0.473434H220.208Z" fill="white"/>
<path d="M4.81524 48.7298C3.31409 47.8984 2.13626 46.7667 1.28176 45.3118C0.427252 43.8568 0 42.2286 0 40.4157C0 38.6027 0.427252 36.963 1.28176 35.5196C2.13626 34.0646 3.31409 32.933 4.82679 32.1016C6.33949 31.2702 8.02541 30.866 9.89608 30.866C11.351 30.866 12.6905 31.1085 13.903 31.6051C15.1155 32.09 16.1432 32.8175 16.9977 33.776L15.2656 35.4619C13.8568 33.9838 12.1016 33.2448 10.0116 33.2448C8.62587 33.2448 7.36721 33.5566 6.24711 34.1801C5.12702 34.8037 4.24942 35.6582 3.61432 36.7552C2.97922 37.8522 2.66744 39.0762 2.66744 40.4272C2.66744 41.7783 2.97922 43.0023 3.61432 44.0993C4.24942 45.1963 5.12702 46.0508 6.24711 46.6743C7.36721 47.2979 8.62587 47.6097 10.0116 47.6097C12.0901 47.6097 13.8453 46.8591 15.2656 45.3695L16.9977 47.0554C16.1432 48.0138 15.1039 48.7413 13.8915 49.2494C12.6674 49.7459 11.3279 50 9.87298 50C8.00231 49.9769 6.3164 49.5612 4.81524 48.7298Z" fill="white"/>
<path d="M43.7991 45.0923H33.8684L31.813 49.769H29.0647L37.5289 31.0854H40.1732L48.6605 49.769H45.8545L43.7991 45.0923ZM42.8638 42.9561L38.8338 33.799L34.8037 42.9561H42.8638Z" fill="white"/>
<path d="M75.4503 49.7575L71.4203 44.0184C70.9237 44.0531 70.5311 44.0762 70.2424 44.0762H65.6235V49.7575H62.9561V31.0739H70.2424C72.6674 31.0739 74.5611 31.6512 75.9584 32.806C77.3441 33.9607 78.0369 35.5542 78.0369 37.5865C78.0369 39.03 77.6789 40.254 76.9745 41.2702C76.2586 42.2863 75.254 43.0254 73.926 43.4873L78.3602 49.7575H75.4503ZM74.0415 40.7159C74.9307 39.9884 75.381 38.9491 75.381 37.5981C75.381 36.2471 74.9307 35.2078 74.0415 34.4919C73.1524 33.7759 71.8591 33.4064 70.1731 33.4064H65.635V41.8129H70.1731C71.8591 41.8013 73.1524 41.4434 74.0415 40.7159Z" fill="white"/>
<path d="M109.966 31.0739V49.7575H107.772L96.559 35.8198V49.7575H93.8916V31.0739H96.0856L107.298 45.0115V31.0739H109.966Z" fill="white"/>
<path d="M127.102 31.0739H129.769V49.7575H127.102V31.0739Z" fill="white"/>
<path d="M162.945 31.0739L154.746 49.7575H152.102L143.88 31.0739H146.767L153.499 46.4203L160.277 31.0739H162.945Z" fill="white"/>
<path d="M188.176 45.0923H178.245L176.189 49.769H173.441L181.905 31.0854H184.55L193.037 49.769H190.231L188.176 45.0923ZM187.24 42.9561L183.21 33.799L179.18 42.9561H187.24Z" fill="white"/>
<path d="M207.333 31.0739H210V47.4364H220.115V49.7575H207.333V31.0739Z" fill="white"/>
</svg>
