<svg width="34" height="34" viewBox="0 0 34 34" fill="none" xmlns="http://www.w3.org/2000/svg">
<path d="M7.02402 31.7584C7.11817 31.8338 7.23518 31.8749 7.35579 31.8749C7.47639 31.8749 7.5934 31.8338 7.68755 31.7584C7.88784 31.5984 12.5866 27.7935 12.5866 23.8244C12.5876 23.1369 12.453 22.4559 12.1905 21.8204C11.9281 21.1849 11.543 20.6074 11.0571 20.1209C10.5713 19.6344 9.99436 19.2484 9.35925 18.9851C8.72413 18.7217 8.04333 18.5862 7.35579 18.5862C6.66824 18.5862 5.98744 18.7217 5.35233 18.9851C4.71722 19.2484 4.14025 19.6344 3.65443 20.1209C3.16861 20.6074 2.78347 21.1849 2.52103 21.8204C2.2586 22.4559 2.12403 23.1369 2.12501 23.8244C2.12501 27.7935 6.82377 31.5984 7.02402 31.7584ZM7.35579 19.6561C8.4609 19.6574 9.52037 20.097 10.3018 20.8784C11.0832 21.6599 11.5228 22.7193 11.5241 23.8244C11.5241 26.7214 8.39651 29.7258 7.35579 30.6453C6.31509 29.7258 3.18751 26.7214 3.18751 23.8244C3.1888 22.7193 3.62837 21.6599 4.4098 20.8784C5.19122 20.097 6.25069 19.6574 7.35579 19.6561Z" fill="#01579B"/>
<path d="M10.2777 23.8244C10.155 19.963 4.55615 19.9639 4.43396 23.8245C4.55672 27.6859 10.1555 27.685 10.2777 23.8244ZM5.49646 23.8244C5.50196 23.3349 5.70028 22.8673 6.04839 22.5231C6.3965 22.1789 6.86631 21.9858 7.35586 21.9858C7.84542 21.9858 8.31522 22.1789 8.66332 22.5231C9.01142 22.8674 9.20973 23.335 9.21521 23.8245C9.20971 24.314 9.01139 24.7816 8.66328 25.1258C8.31517 25.4701 7.84536 25.6631 7.35581 25.6631C6.86625 25.6631 6.39644 25.47 6.04835 25.1258C5.70025 24.7816 5.50194 24.314 5.49646 23.8244Z" fill="#01579B"/>
<path d="M7.02402 15.2899C7.11817 15.3653 7.23518 15.4063 7.35578 15.4063C7.47639 15.4063 7.5934 15.3653 7.68755 15.2899C7.88783 15.1298 12.5866 11.325 12.5866 7.3559C12.5846 5.9699 12.0326 4.64135 11.0519 3.662C10.0711 2.68265 8.74178 2.13257 7.35578 2.13257C5.96978 2.13257 4.64044 2.68265 3.65969 3.662C2.67895 4.64135 2.12698 5.9699 2.125 7.3559C2.125 11.325 6.82376 15.1298 7.02402 15.2899ZM7.35579 3.18761C8.46089 3.18891 9.52036 3.62848 10.3018 4.4099C11.0832 5.19133 11.5228 6.2508 11.5241 7.3559C11.5241 10.2529 8.3965 13.2572 7.35579 14.1768C6.31508 13.2572 3.1875 10.2529 3.1875 7.3559C3.18879 6.2508 3.62836 5.19133 4.40979 4.4099C5.19122 3.62848 6.25069 3.18891 7.35579 3.18761Z" fill="#01579B"/>
<path d="M10.2777 7.35568C10.155 3.49426 4.55615 3.49516 4.43396 7.35575C4.55672 11.2171 10.1555 11.2162 10.2777 7.35568ZM5.49646 7.35568C5.50196 6.86616 5.70028 6.39855 6.04839 6.05433C6.3965 5.71011 6.86631 5.51706 7.35586 5.51707C7.84542 5.51708 8.31522 5.71014 8.66332 6.05437C9.01142 6.3986 9.20973 6.86622 9.21521 7.35574C9.20971 7.84527 9.01139 8.31288 8.66328 8.65709C8.31517 9.00131 7.84536 9.19436 7.35581 9.19436C6.86625 9.19435 6.39644 9.00128 6.04835 8.65705C5.70025 8.31282 5.50194 7.84521 5.49646 7.35568Z" fill="#01579B"/>
<path d="M26.0312 2.60303C24.4819 2.60478 22.9966 3.22102 21.901 4.31656C20.8055 5.41209 20.1893 6.89746 20.1875 8.44678C20.1875 12.9009 25.4743 17.1815 25.6995 17.3616C25.7936 17.4369 25.9106 17.478 26.0312 17.478C26.1518 17.478 26.2689 17.4369 26.363 17.3616C26.5882 17.1815 31.875 12.9009 31.875 8.44678C31.8732 6.89746 31.257 5.41209 30.1615 4.31656C29.0659 3.22102 27.5806 2.60478 26.0312 2.60303ZM26.0312 16.2495C24.8972 15.2545 21.25 11.7933 21.25 8.44678C21.25 7.17871 21.7537 5.96258 22.6504 5.06592C23.5471 4.16927 24.7632 3.66553 26.0312 3.66553C27.2993 3.66553 28.5154 4.16927 29.4121 5.06592C30.3088 5.96258 30.8125 7.17871 30.8125 8.44678C30.8125 11.7933 27.1653 15.2545 26.0312 16.2495Z" fill="#01579B"/>
<path d="M26.0313 5.21313C21.7578 5.34893 21.7588 11.5453 26.0314 11.6805C30.3048 11.5447 30.3038 5.34828 26.0313 5.21313ZM26.0313 10.618C25.4588 10.6128 24.9116 10.3818 24.5086 9.97519C24.1056 9.56857 23.8796 9.01926 23.8796 8.44679C23.8796 7.87431 24.1057 7.325 24.5086 6.91839C24.9116 6.51178 25.4589 6.28077 26.0313 6.27563C26.6037 6.28086 27.1509 6.51192 27.5538 6.91853C27.9567 7.32514 28.1828 7.87441 28.1828 8.44683C28.1828 9.01925 27.9567 9.56852 27.5538 9.97512C27.1509 10.3817 26.6037 10.6128 26.0313 10.618Z" fill="#01579B"/>
<path d="M10.2213 14.6601C10.0815 14.6461 9.94176 14.688 9.83275 14.7767C9.72375 14.8654 9.65434 14.9937 9.63972 15.1335C9.62511 15.2733 9.66648 15.4132 9.75477 15.5225C9.84306 15.6319 9.97109 15.7018 10.1108 15.7169L11.1549 15.8329C11.2243 15.8408 11.2947 15.8349 11.3619 15.8156C11.4291 15.7963 11.4918 15.7639 11.5464 15.7203C11.6011 15.6767 11.6466 15.6228 11.6804 15.5615C11.7141 15.5003 11.7355 15.433 11.7432 15.3635C11.7509 15.2941 11.7448 15.2237 11.7253 15.1566C11.7058 15.0895 11.6732 15.0268 11.6295 14.9723C11.5857 14.9178 11.5316 14.8724 11.4703 14.8389C11.409 14.8053 11.3416 14.7841 11.2721 14.7766L10.2213 14.6601Z" fill="#01579B"/>
<path d="M17.3144 16.5155L19.3678 16.743C19.5068 16.7563 19.6454 16.7145 19.7538 16.6265C19.8622 16.5385 19.9315 16.4113 19.9469 16.2726C19.9623 16.1338 19.9225 15.9946 19.8361 15.885C19.7497 15.7753 19.6236 15.7041 19.4851 15.6867L17.4317 15.4592C17.2928 15.4459 17.1542 15.4878 17.0459 15.5758C16.9376 15.6638 16.8682 15.7909 16.8529 15.9296C16.8375 16.0683 16.8772 16.2075 16.9636 16.3171C17.05 16.4267 17.176 16.498 17.3144 16.5155Z" fill="#01579B"/>
<path d="M13.2081 16.0604L15.2612 16.2879C15.4002 16.3012 15.5388 16.2594 15.6471 16.1714C15.7554 16.0833 15.8247 15.9562 15.8401 15.8175C15.8555 15.6788 15.8157 15.5396 15.7294 15.43C15.643 15.3203 15.5169 15.2491 15.3784 15.2316L13.3253 15.0041C13.1864 14.9908 13.0477 15.0326 12.9394 15.1207C12.8311 15.2087 12.7617 15.3358 12.7463 15.4745C12.7309 15.6133 12.7707 15.7525 12.8571 15.8621C12.9435 15.9717 13.0696 16.043 13.2081 16.0604Z" fill="#01579B"/>
<path d="M22.5942 16.031L21.5382 15.914C21.3983 15.8989 21.2582 15.9398 21.1485 16.0279C21.0388 16.1159 20.9685 16.2438 20.953 16.3836C20.9374 16.5235 20.978 16.6637 21.0657 16.7737C21.1534 16.8836 21.2812 16.9543 21.4209 16.9702L22.4769 17.0872C22.4967 17.0893 22.5165 17.0903 22.5363 17.0903C22.6705 17.0876 22.7987 17.0342 22.8952 16.941C22.9916 16.8477 23.0493 16.7215 23.0566 16.5875C23.064 16.4535 23.0204 16.3217 22.9346 16.2185C22.8488 16.1153 22.7272 16.0483 22.5942 16.031Z" fill="#01579B"/>
<path d="M22.8372 19.4097C22.8798 19.465 22.9328 19.5113 22.9933 19.5461C23.0538 19.5808 23.1206 19.6033 23.1897 19.6123C23.2589 19.6212 23.3292 19.6165 23.3965 19.5983C23.4639 19.5801 23.527 19.5488 23.5822 19.5062L24.6341 18.6956C24.6893 18.653 24.7357 18.6 24.7704 18.5395C24.8052 18.479 24.8277 18.4123 24.8366 18.3431C24.8456 18.2739 24.8408 18.2036 24.8227 18.1363C24.8045 18.069 24.7732 18.0059 24.7306 17.9506C24.688 17.8953 24.635 17.849 24.5745 17.8143C24.514 17.7795 24.4473 17.757 24.3781 17.7481C24.3089 17.7391 24.2386 17.7438 24.1713 17.762C24.1039 17.7802 24.0408 17.8115 23.9856 17.8541L22.9337 18.6647C22.8784 18.7073 22.8321 18.7603 22.7973 18.8208C22.7626 18.8813 22.74 18.948 22.7311 19.0172C22.7221 19.0864 22.7269 19.1567 22.7451 19.224C22.7633 19.2914 22.7946 19.3545 22.8372 19.4097Z" fill="#01579B"/>
<path d="M16.4366 24.8727C16.5539 24.8728 16.6678 24.8339 16.7606 24.7622L18.4659 23.4483C18.5744 23.3613 18.6444 23.2351 18.6609 23.097C18.6774 22.9589 18.6391 22.8198 18.5542 22.7097C18.4693 22.5995 18.3446 22.527 18.2068 22.5078C18.069 22.4886 17.9292 22.5241 17.8174 22.6069L16.1121 23.9207C16.0263 23.9894 15.9637 24.0829 15.9329 24.1885C15.9021 24.2941 15.9046 24.4066 15.9401 24.5106C15.9756 24.6147 16.0423 24.7053 16.1311 24.7701C16.22 24.8349 16.3267 24.8707 16.4366 24.8727Z" fill="#01579B"/>
<path d="M19.4265 22.0377C19.469 22.093 19.5221 22.1393 19.5826 22.1741C19.643 22.2088 19.7098 22.2313 19.779 22.2403C19.8481 22.2492 19.9184 22.2445 19.9858 22.2263C20.0531 22.2081 20.1162 22.1768 20.1715 22.1342L21.8768 20.8204C21.932 20.7778 21.9783 20.7247 22.0131 20.6642C22.0478 20.6038 22.0703 20.537 22.0793 20.4678C22.0883 20.3987 22.0835 20.3284 22.0653 20.261C22.0471 20.1937 22.0158 20.1306 21.9733 20.0754C21.9307 20.0201 21.8776 19.9738 21.8171 19.939C21.7567 19.9043 21.6899 19.8818 21.6207 19.8728C21.5516 19.8638 21.4813 19.8686 21.414 19.8868C21.3466 19.905 21.2835 19.9363 21.2283 19.9789L19.5229 21.2927C19.4677 21.3353 19.4213 21.3883 19.3866 21.4488C19.3518 21.5093 19.3293 21.576 19.3203 21.6452C19.3114 21.7144 19.3161 21.7847 19.3343 21.852C19.3525 21.9194 19.3838 21.9825 19.4265 22.0377Z" fill="#01579B"/>
<path d="M14.4068 25.235L13.3606 26.0409C13.3408 26.0565 13.3219 26.0733 13.3041 26.0913C13.2117 26.1884 13.1594 26.3168 13.1576 26.4509C13.1559 26.5849 13.2049 26.7147 13.2947 26.8141C13.3846 26.9136 13.5087 26.9755 13.6423 26.9873C13.7758 26.9991 13.9089 26.9601 14.0149 26.878L15.0553 26.0765C15.1639 25.9895 15.234 25.8633 15.2505 25.7251C15.2671 25.587 15.2288 25.4478 15.1438 25.3376C15.0589 25.2274 14.9341 25.1549 14.7963 25.1357C14.6585 25.1165 14.5186 25.1522 14.4068 25.235Z" fill="#01579B"/>
</svg>
