<svg width="20" height="20" viewBox="0 0 20 20" fill="none" xmlns="http://www.w3.org/2000/svg">
<path d="M9.88399 2.5C14.0261 2.5 17.384 5.85786 17.384 10C17.384 14.0784 14.1287 17.3965 10.0746 17.4976L9.88399 17.5V16.25C13.3358 16.25 16.134 13.4518 16.134 10C16.134 6.54822 13.3358 3.75 9.88399 3.75C7.87871 3.75 6.04369 4.70253 4.88294 6.24977L7.5 6.25V7.5H3.125V3.125H4.375L4.37482 4.90958C5.76608 3.40406 7.74449 2.5 9.88399 2.5ZM10.625 7.5V9.75875L12.1619 11.4554L11.2355 12.2946L9.375 10.241V7.5H10.625Z" fill="#455A64"/>
</svg>
