<svg width="34" height="34" viewBox="0 0 34 34" fill="none" xmlns="http://www.w3.org/2000/svg">
<path d="M5.75659 30.2087H27.458C28.4208 30.2077 29.3439 29.8247 30.0247 29.1439C30.7055 28.463 31.0885 27.54 31.0895 26.5771V24.4724C31.0899 24.2221 31.0002 23.9801 30.8368 23.7905C30.6735 23.601 30.4474 23.4765 30.1998 23.4399C29.6557 23.3544 29.1601 23.0775 28.8022 22.6589C28.4442 22.2403 28.2476 21.7077 28.2476 21.157C28.2476 20.6062 28.4442 20.0736 28.8022 19.655C29.1601 19.2365 29.6557 18.9595 30.1998 18.874C30.4474 18.8374 30.6735 18.713 30.8368 18.5234C31.0002 18.3338 31.0899 18.0918 31.0895 17.8416V15.7368C31.0885 14.774 30.7055 13.8509 30.0247 13.1701C29.3439 12.4892 28.4208 12.1063 27.458 12.1052H5.75659C4.79376 12.1063 3.87066 12.4892 3.18984 13.1701C2.50901 13.8509 2.12606 14.774 2.125 15.7368V17.8416C2.12464 18.0918 2.21434 18.3338 2.3777 18.5234C2.54107 18.713 2.76719 18.8374 3.01474 18.874C3.5555 18.9636 4.04689 19.2423 4.40137 19.6604C4.75586 20.0785 4.95043 20.6089 4.95042 21.157C4.95041 21.7051 4.75583 22.2355 4.40134 22.6536C4.04684 23.0717 3.55545 23.3503 3.01469 23.44C2.76714 23.4766 2.54104 23.601 2.37769 23.7906C2.21433 23.9801 2.12464 24.2221 2.125 24.4724V26.5771C2.12606 27.54 2.50901 28.463 3.18983 29.1439C3.87066 29.8247 4.79376 30.2077 5.75659 30.2087ZM3.17765 24.49C6.94379 23.8937 6.9475 18.4185 3.18742 17.8416L3.1875 15.7368C3.18824 15.0557 3.45914 14.4026 3.94078 13.921C4.42242 13.4394 5.07545 13.1685 5.75659 13.1677H27.458C28.1391 13.1685 28.7921 13.4394 29.2738 13.921C29.7554 14.4026 30.0263 15.0557 30.027 15.7368L30.0369 17.8239C26.2707 18.4203 26.267 23.8954 30.0271 24.4724L30.027 26.5771C30.0263 27.2583 29.7554 27.9113 29.2737 28.3929C28.7921 28.8746 28.1391 29.1455 27.4579 29.1462H5.75659C5.07545 29.1455 4.42242 28.8746 3.94078 28.3929C3.45914 27.9113 3.18824 27.2583 3.1875 26.5771L3.17765 24.49Z" fill="#01579B"/>
<path d="M30.4909 6.56919C30.2627 5.63318 29.6726 4.82588 28.85 4.32441C28.0274 3.82294 27.0394 3.66825 26.1029 3.89427L5.01681 9.01977C4.46039 9.15468 3.94376 9.41925 3.50909 9.79189C3.07441 10.1645 2.73402 10.6347 2.51569 11.164C2.46544 11.2938 2.46814 11.4381 2.52318 11.566C2.57823 11.6938 2.68123 11.795 2.81006 11.8477C2.9389 11.9004 3.08327 11.9005 3.21216 11.8479C3.34105 11.7954 3.44416 11.6943 3.49935 11.5665C3.65371 11.1925 3.89436 10.8604 4.20164 10.5972C4.50892 10.334 4.87411 10.1472 5.26737 10.0522L26.3534 4.92665C27.0159 4.77004 27.7134 4.8809 28.2947 5.2352C28.8759 5.5895 29.2941 6.15866 29.4584 6.81925L30.8198 12.4259C30.8452 12.555 30.9175 12.6701 31.0228 12.7491C31.128 12.8281 31.2588 12.8653 31.3899 12.8536C31.521 12.8418 31.6431 12.782 31.7326 12.6856C31.8222 12.5892 31.8729 12.463 31.875 12.3315C31.875 12.2892 31.8699 12.247 31.86 12.2059L30.4909 6.56919Z" fill="#01579B"/>
<path d="M24.2288 15.3059C24.3679 15.3032 24.5004 15.246 24.5978 15.1467C24.6952 15.0474 24.7498 14.9138 24.7498 14.7746C24.7497 14.6355 24.6952 14.5019 24.5978 14.4026C24.5003 14.3033 24.3678 14.2461 24.2287 14.2434C24.0896 14.2461 23.9572 14.3033 23.8597 14.4026C23.7623 14.502 23.7078 14.6355 23.7078 14.7747C23.7078 14.9138 23.7623 15.0474 23.8598 15.1467C23.9572 15.246 24.0897 15.3032 24.2288 15.3059Z" fill="#01579B"/>
<path d="M24.2288 18.4971C24.3679 18.4944 24.5004 18.4372 24.5978 18.3379C24.6952 18.2385 24.7498 18.1049 24.7498 17.9658C24.7497 17.8267 24.6952 17.6931 24.5978 17.5938C24.5003 17.4944 24.3678 17.4373 24.2287 17.4346C24.0896 17.4373 23.9572 17.4945 23.8597 17.5938C23.7623 17.6931 23.7078 17.8267 23.7078 17.9658C23.7078 18.105 23.7623 18.2385 23.8598 18.3379C23.9572 18.4372 24.0897 18.4944 24.2288 18.4971Z" fill="#01579B"/>
<path d="M24.2288 21.6882C24.3679 21.6855 24.5004 21.6284 24.5978 21.529C24.6952 21.4297 24.7498 21.2961 24.7498 21.157C24.7497 21.0178 24.6952 20.8843 24.5978 20.7849C24.5003 20.6856 24.3678 20.6284 24.2287 20.6257C24.0896 20.6284 23.9572 20.6856 23.8597 20.785C23.7623 20.8843 23.7078 21.0179 23.7078 21.157C23.7078 21.2961 23.7623 21.4297 23.8598 21.529C23.9572 21.6284 24.0897 21.6855 24.2288 21.6882Z" fill="#01579B"/>
<path d="M24.2287 24.8792C24.3678 24.8765 24.5004 24.8194 24.5979 24.72C24.6953 24.6207 24.7499 24.4871 24.7499 24.3479C24.7499 24.2087 24.6953 24.0751 24.5978 23.9758C24.5004 23.8764 24.3678 23.8193 24.2286 23.8167C24.0895 23.8193 23.9569 23.8764 23.8595 23.9758C23.762 24.0751 23.7074 24.2087 23.7074 24.3479C23.7074 24.4871 23.762 24.6207 23.8595 24.72C23.957 24.8194 24.0895 24.8765 24.2287 24.8792Z" fill="#01579B"/>
<path d="M24.2288 28.0703C24.3679 28.0676 24.5004 28.0104 24.5978 27.9111C24.6952 27.8118 24.7498 27.6782 24.7498 27.539C24.7497 27.3999 24.6952 27.2663 24.5978 27.167C24.5003 27.0677 24.3678 27.0105 24.2287 27.0078C24.0896 27.0105 23.9572 27.0677 23.8597 27.167C23.7623 27.2664 23.7078 27.3999 23.7078 27.5391C23.7078 27.6782 23.7623 27.8118 23.8598 27.9111C23.9572 28.0104 24.0897 28.0676 24.2288 28.0703Z" fill="#01579B"/>
<path d="M11.2626 23.3719C11.339 23.4482 11.4368 23.4995 11.543 23.5189C11.6492 23.5382 11.7588 23.5248 11.8572 23.4803L20.3738 19.6272C20.5018 19.5689 20.6014 19.4622 20.6509 19.3305C20.7003 19.1989 20.6955 19.053 20.6376 18.9248C20.5796 18.7967 20.4732 18.6967 20.3417 18.6469C20.2101 18.5971 20.0642 18.6015 19.9359 18.6591L16.3148 20.2974L13.7555 16.8542C13.6703 16.7442 13.5453 16.672 13.4075 16.6531C13.2697 16.6342 13.1299 16.6701 13.0182 16.7531C12.9066 16.8361 12.8319 16.9596 12.8103 17.0971C12.7887 17.2345 12.8218 17.3749 12.9026 17.4882L15.3239 20.7457L11.7539 22.3607L9.94749 20.5545C9.8472 20.4582 9.71315 20.4051 9.57411 20.4065C9.43507 20.4079 9.30213 20.4638 9.20382 20.5621C9.1055 20.6604 9.04965 20.7934 9.04824 20.9324C9.04684 21.0715 9.1 21.2055 9.1963 21.3058L11.2626 23.3719Z" fill="#01579B"/>
<path d="M19.6449 24.6113H10.0824C9.9415 24.6113 9.80638 24.6673 9.70675 24.7669C9.60712 24.8666 9.55115 25.0017 9.55115 25.1426C9.55115 25.2835 9.60712 25.4186 9.70675 25.5182C9.80638 25.6179 9.9415 25.6738 10.0824 25.6738H19.6449C19.784 25.671 19.9164 25.6139 20.0137 25.5145C20.1111 25.4152 20.1656 25.2817 20.1656 25.1426C20.1656 25.0035 20.1111 24.87 20.0137 24.7706C19.9164 24.6713 19.784 24.6141 19.6449 24.6113Z" fill="#01579B"/>
</svg>
