<svg width="34" height="34" viewBox="0 0 34 34" fill="none" xmlns="http://www.w3.org/2000/svg">
<g clip-path="url(#clip0_104_749)">
<path d="M29.0208 4.9792C25.81 1.76829 21.5409 0 17 0C12.4591 0 8.19003 1.76829 4.9792 4.9792C1.76837 8.19011 0 12.4591 0 17C0 21.5409 1.76829 25.81 4.9792 29.0208C8.19011 32.2316 12.4591 34 17 34C21.5409 34 25.81 32.2317 29.0208 29.0208C32.2316 25.8099 34 21.5409 34 17C34 12.4591 32.2317 8.19003 29.0208 4.9792ZM28.242 28.242C25.2391 31.2447 21.2466 32.8985 17 32.8985C12.7534 32.8985 8.76091 31.2447 5.75804 28.242C2.75525 25.2391 1.10151 21.2466 1.10151 17C1.10151 12.7534 2.75525 8.76091 5.75804 5.75804C8.76091 2.75525 12.7534 1.10151 17 1.10151C21.2466 1.10151 25.2391 2.75525 28.242 5.75804C31.2447 8.76091 32.8985 12.7534 32.8985 17C32.8985 21.2466 31.2447 25.2391 28.242 28.242Z" fill="#C2185B"/>
<path d="M17 2.34985C8.92184 2.34985 2.34985 8.92184 2.34985 17C2.34985 25.0781 8.92184 31.6501 17 31.6501C25.0781 31.6501 31.6501 25.0781 31.6501 17C31.6501 8.92184 25.0781 2.34985 17 2.34985ZM17.5507 30.5364V28.1619C17.5507 27.8578 17.3041 27.6112 17 27.6112C16.6958 27.6112 16.4492 27.8578 16.4492 28.1619V30.5364C9.41569 30.2537 3.7462 24.5842 3.46348 17.5507H5.83797C6.14214 17.5507 6.38873 17.3041 6.38873 17C6.38873 16.6958 6.14214 16.4492 5.83797 16.4492H3.46348C3.7462 9.41569 9.41569 3.7462 16.4492 3.46348V5.83797C16.4492 6.14214 16.6958 6.38873 17 6.38873C17.3041 6.38873 17.5507 6.14214 17.5507 5.83797V3.46348C24.5842 3.7462 30.2537 9.41569 30.5364 16.4492H28.1619C27.8578 16.4492 27.6112 16.6958 27.6112 17C27.6112 17.3041 27.8578 17.5507 28.1619 17.5507H30.5364C30.2537 24.5842 24.5842 30.2537 17.5507 30.5364Z" fill="#C2185B"/>
<path d="M24.4134 8.85948L13.8389 13.5593C13.7143 13.6146 13.6146 13.7143 13.5593 13.8389L8.85948 24.4134C8.76696 24.6216 8.81219 24.8654 8.97331 25.0265C9.07883 25.132 9.21968 25.1879 9.36287 25.1879C9.43837 25.1879 9.51452 25.1724 9.58641 25.1404L20.1609 20.4406C20.2855 20.3853 20.3852 20.2856 20.4406 20.161L25.1403 9.58648C25.2329 9.37829 25.1876 9.13449 25.0265 8.97338C24.8654 8.81219 24.6216 8.76695 24.4134 8.85948ZM14.2402 15.0191L15.0223 15.8011C14.8095 16.151 14.6868 16.5614 14.6868 16.9999C14.6868 18.2754 15.7245 19.3131 17 19.3131C17.4385 19.3131 17.8489 19.1904 18.1988 18.9776L18.9808 19.7597L10.4476 23.5522L14.2402 15.0191ZM17 18.2116C16.3318 18.2116 15.7883 17.6681 15.7883 16.9999C15.7883 16.3318 16.3318 15.7883 17 15.7883C17.6681 15.7883 18.2116 16.3318 18.2116 16.9999C18.2116 17.6681 17.6681 18.2116 17 18.2116ZM19.7597 18.9808L18.9776 18.1988C19.1904 17.8489 19.3131 17.4385 19.3131 16.9999C19.3131 15.7245 18.2754 14.6868 17 14.6868C16.5614 14.6868 16.151 14.8095 15.8011 15.0223L15.0191 14.2402L23.5523 10.4477L19.7597 18.9808Z" fill="#C2185B"/>
</g>
<defs>
<clipPath id="clip0_104_749">
<rect width="34" height="34" fill="white"/>
</clipPath>
</defs>
</svg>
