<svg width="15" height="15" viewBox="0 0 15 15" fill="none" xmlns="http://www.w3.org/2000/svg">
<g clip-path="url(#clip0_184_14)">
<path d="M10.8333 15H2.49998C1.83217 15 1.20438 14.7399 0.732209 14.2677C0.260042 13.7955 0 13.1677 0 12.5V4.16666C0 3.49887 0.260071 2.87108 0.732238 2.39891C1.20441 1.92675 1.8322 1.66668 2.50001 1.66668H5.83334C6.2936 1.66668 6.66668 2.03975 6.66668 2.50001C6.66668 2.96028 6.2936 3.33335 5.83334 3.33335H2.49998C2.27738 3.33335 2.06814 3.42004 1.91077 3.57741C1.7534 3.73478 1.66668 3.94406 1.66668 4.16666V12.5C1.66668 12.7226 1.75337 12.9318 1.91077 13.0893C2.06814 13.2466 2.27738 13.3333 2.49998 13.3333H10.8333C11.0559 13.3333 11.2651 13.2466 11.4225 13.0892C11.5799 12.9318 11.6666 12.7226 11.6666 12.5V9.16666C11.6666 8.7064 12.0397 8.33335 12.5 8.33335C12.9602 8.33335 13.3333 8.70643 13.3333 9.16666V12.5C13.3333 13.1678 13.0733 13.7955 12.6011 14.2678C12.1289 14.7399 11.501 15 10.8333 15ZM5.83334 9.99997C5.62005 9.99997 5.40679 9.91864 5.24409 9.75591C4.91867 9.43049 4.91867 8.90281 5.24409 8.57738L12.1548 1.66668H9.16666C8.7064 1.66668 8.33335 1.2936 8.33335 0.833338C8.33335 0.373077 8.7064 0 9.16666 0H14.1667C14.2819 0 14.3917 0.0234046 14.4915 0.0657018C14.5847 0.105117 14.6722 0.162231 14.7488 0.237074L14.7488 0.237132C14.7494 0.237685 14.7499 0.238209 14.7505 0.238762C14.7506 0.238908 14.7508 0.239082 14.751 0.239228C14.7514 0.239635 14.7518 0.240072 14.7522 0.240509C14.7525 0.2408 14.7528 0.241062 14.7531 0.241353C14.7534 0.241673 14.7538 0.242022 14.754 0.242284C14.7546 0.242867 14.7552 0.243478 14.7558 0.244089C14.7564 0.244671 14.757 0.245312 14.7576 0.245894C14.7579 0.246185 14.7583 0.246564 14.7585 0.246826C14.7588 0.247117 14.7591 0.247379 14.7594 0.24767C14.7598 0.248106 14.7602 0.248514 14.7607 0.24898C14.7608 0.249096 14.761 0.2493 14.7611 0.249445C14.7617 0.249999 14.7622 0.250552 14.7627 0.251105L14.7628 0.251163C14.8376 0.327781 14.8948 0.415286 14.9342 0.508439C14.9764 0.608287 14.9999 0.718033 14.9999 0.833309V5.83331C14.9999 6.29357 14.6268 6.66665 14.1665 6.66665C13.7063 6.66665 13.3332 6.29357 13.3332 5.83331V2.8452L6.42244 9.75594C6.25986 9.91867 6.0466 9.99997 5.83334 9.99997Z" fill="white"/>
</g>
<defs>
<clipPath id="clip0_184_14">
<rect width="15" height="15" fill="white"/>
</clipPath>
</defs>
</svg>
