<svg width="98" height="50" viewBox="0 0 98 50" fill="none" xmlns="http://www.w3.org/2000/svg">
<path d="M42.9223 21.7047C42.8149 21.8903 42.7025 22.071 42.6049 22.2614C42.0481 23.3505 41.5207 24.4542 40.9346 25.5238C40.6522 25.9797 40.3406 26.4169 40.0018 26.8326C39.6708 27.2366 39.2055 27.5082 38.691 27.5978C38.1764 27.6874 37.6468 27.5892 37.1986 27.321C36.7348 27.0852 36.3309 26.7466 36.0177 26.331C35.7046 25.9155 35.4904 25.4339 35.3916 24.9231C35.25 24.3175 35.1376 24.337 34.5955 24.6398C34.2444 24.8146 33.9502 25.0854 33.747 25.4209C33.5438 25.7563 33.4401 26.1426 33.4479 26.5347C33.349 28.1462 32.7421 29.685 31.7141 30.93C31.1527 31.6403 30.4115 32.1873 29.5673 32.5145C28.7232 32.8417 27.8069 32.9371 26.9134 32.7907C25.665 32.6536 24.5022 32.0895 23.6218 31.1938C22.7695 30.2458 22.2905 29.0205 22.2739 27.7459C22.2641 27.5979 22.2641 27.4494 22.2739 27.3014C22.2739 26.94 22.1078 26.8131 21.7855 26.9742C21.2288 27.2282 20.6671 27.4626 20.1348 27.7703C19.9502 27.8908 19.8164 28.0751 19.7588 28.288C19.163 30.4075 18.6648 32.5612 17.9908 34.6368C16.7308 38.5438 15.2218 42.314 12.8288 45.6692C11.7915 47.2619 10.3598 48.5591 8.67269 49.4345C7.26129 50.1085 5.85966 50.3185 4.49222 49.2831C3.69746 48.6255 3.17532 47.6961 3.0271 46.6752C2.70966 45.2101 3.09547 43.7938 3.46663 42.4019C4.36036 39.0908 6.12827 36.224 8.18921 33.5331C9.93338 31.268 12.0407 29.3075 14.4257 27.7312C14.6211 27.5895 14.8326 27.4715 15.0557 27.3796C15.547 27.2067 15.9804 26.9004 16.3074 26.4949C16.6343 26.0895 16.8418 25.601 16.9067 25.0842C17.5223 22.465 17.9031 19.796 18.0446 17.1091C18.1374 14.7063 18.2546 12.2986 18.2448 9.89582C18.2886 8.09212 17.956 6.29909 17.2681 4.63115C16.5892 3.06836 15.5148 2.56533 13.9178 3.16603C12.4816 3.73109 11.1841 4.59892 10.1134 5.71046C8.29625 7.45851 6.74174 9.46044 5.49827 11.654C4.77681 12.9243 4.14368 14.2427 3.60338 15.6C3.07289 17.0478 2.64532 18.5313 2.32384 20.0393C2.11497 20.7645 2.08404 21.5293 2.23367 22.2689C2.3833 23.0086 2.70908 23.7012 3.18338 24.2882C3.83292 25.0745 4.72176 25.1819 5.62525 25.2649C6.06479 25.2991 6.52386 25.2259 6.95363 25.304C7.2027 25.3479 7.41269 25.597 7.63734 25.7533C7.46153 25.9926 7.32967 26.3735 7.10013 26.4468C4.51664 27.2428 1.39105 26.4468 0.384999 23.331C-0.112959 21.5935 -0.128152 19.7532 0.341047 18.0077C1.13768 14.7444 2.505 11.6477 4.37989 8.86046C5.63438 6.84728 7.12109 4.98849 8.80944 3.32232C10.3673 1.82301 12.0669 0.509285 14.2841 0.0941677C15.375 -0.113893 16.5037 0.0247831 17.5118 0.49074C18.5199 0.956697 19.3569 1.72655 19.9053 2.69231C20.5841 3.99028 21.0382 5.39386 21.2483 6.84349C21.6873 9.13879 21.835 11.4803 21.6878 13.8126C21.5413 16.4156 21.2288 19.0089 20.9553 21.6021C20.8625 22.4861 20.6671 23.3554 20.5304 24.2345C20.4523 24.7228 20.5695 24.8449 21.0676 24.6838C21.5871 24.5453 22.0936 24.3623 22.5816 24.1368C22.8564 23.9611 23.075 23.7102 23.2116 23.414C23.8738 22.1259 24.8087 20.9977 25.9513 20.1077C27.7193 18.75 30.4639 18.8428 31.9876 20.2249C32.8084 21.0406 33.3254 22.1125 33.4527 23.2626C33.5504 23.8047 33.7507 23.8535 34.1951 23.6826C34.996 23.3798 35.0644 23.331 35.04 22.4812C34.9719 21.0333 35.1368 19.584 35.5283 18.1884C35.8067 17.2507 36.1486 16.9724 36.9007 17.0554C37.2094 17.0605 37.5035 17.1878 37.7186 17.4093C37.9337 17.6308 38.0523 17.9285 38.0483 18.2372C38.0483 18.8086 37.9702 19.38 37.9653 19.9563C37.9653 21.6412 37.9653 23.331 37.9653 25.0159C37.9654 25.1941 38.0275 25.3668 38.1411 25.5042C38.532 24.9631 38.8923 24.4006 39.2204 23.8193C40.1337 21.983 41.0177 20.1272 41.887 18.2714C42.1751 17.661 42.473 17.1482 43.2739 17.2556C44.0749 17.363 44.8514 17.6658 45.1639 18.501C45.3739 19.0932 45.5149 19.7078 45.5839 20.3324C45.7793 21.8903 45.916 23.4579 46.0723 25.0207C46.1127 25.1916 46.1768 25.356 46.2628 25.5091C46.4038 25.437 46.5408 25.3571 46.673 25.2698C46.8049 25.1672 46.9025 25.0256 47.0344 24.9231C47.3853 24.6653 47.661 24.3183 47.8327 23.9182C48.0044 23.518 48.0661 23.0792 48.0112 22.6472C47.8939 20.9282 48.5337 19.2921 49.237 17.7293C49.657 16.8014 50.1698 15.9223 50.6386 15.0189C51.0146 14.2961 51.6495 14.3791 52.2844 14.4963C52.5633 14.5328 52.8277 14.6424 53.0506 14.8139C53.2736 14.9855 53.4473 15.2128 53.5542 15.473C53.6162 15.6668 53.6162 15.8751 53.5542 16.0689C53.1293 17.6609 52.6751 19.2433 52.26 20.8403C51.8009 22.5984 51.3712 24.3614 50.9365 26.1196C50.9232 26.2821 50.9232 26.4454 50.9365 26.608C51.1837 26.529 51.4239 26.4293 51.6544 26.31C53.1376 25.2958 54.4865 24.0979 55.6689 22.7449C56.8654 21.4458 57.9984 20.0882 59.1949 18.7891C59.781 18.1542 60.4647 17.6023 61.08 16.987C61.2956 16.7587 61.4796 16.5024 61.627 16.2251C61.9298 15.6879 61.7051 15.2484 61.1386 15.3949C60.2237 15.6155 59.322 15.8878 58.4379 16.2105C57.7054 16.4547 57.007 16.5865 56.3672 15.9809C56.0009 15.6293 55.9765 15.3656 56.4258 15.1019C56.8392 14.8569 57.2802 14.6618 57.7396 14.5207C59.2047 14.0958 60.6698 13.6514 62.2033 13.7002C63.6098 13.7491 64.9235 15.053 64.7575 16.3765C64.6399 17.0106 64.3682 17.606 63.9663 18.1102C63.1068 19.2726 62.1496 20.3568 61.2461 21.48C61.1474 21.6447 61.0718 21.8222 61.0214 22.0075C61.1896 22.0695 61.3628 22.1168 61.5391 22.1491C63.854 22.3445 66.0224 22.9012 67.7659 24.591C67.971 24.7863 68.1761 25.2258 68.64 24.9475C69.3775 24.5031 69.651 24.0538 69.5484 23.4824C69.1961 21.5861 69.173 19.6432 69.48 17.7391C69.8519 15.7143 70.5096 13.7525 71.4335 11.9128C71.6924 11.3658 72.4103 11.1802 73.2405 11.4244C74.3101 11.7663 74.564 12.1521 74.3882 13.2802C74.0463 15.5268 73.6849 17.7733 73.3333 20.0247C73.3244 20.0869 73.3285 20.1502 73.3453 20.2107C73.3621 20.2713 73.3913 20.3276 73.431 20.3763C73.8021 19.7317 74.188 19.0919 74.5445 18.4228C75.436 16.7558 76.4965 15.1847 77.7091 13.7344C77.9469 13.4351 78.2762 13.2219 78.6467 13.1275C79.0171 13.0331 79.4083 13.0627 79.7603 13.2119C80.615 13.4756 81.3084 13.8858 81.3377 14.9016C81.3377 15.5219 81.3377 16.147 81.3377 16.7672L81.4989 16.8405C81.6698 16.6451 81.8505 16.4596 81.9873 16.2544C83.257 14.6428 84.5024 13.0068 85.8015 11.4195C86.3143 10.7944 86.9101 10.7847 87.6622 11.0972C88.9564 11.6344 89.4887 12.5623 89.4887 13.9689C89.4403 16.0787 89.2296 18.1816 88.8587 20.2591C88.8327 20.3478 88.8211 20.4402 88.8245 20.5326C88.8636 20.7377 88.9271 20.9379 88.9857 21.1431C89.1684 21.0773 89.3436 20.9922 89.5082 20.8891C90.8453 19.83 92.0186 18.5793 92.9903 17.1775C94.2357 15.4682 95.4322 13.7588 96.6629 12.0202C96.7166 11.9421 96.7508 11.8249 96.8241 11.8005C97.0731 11.7028 97.3124 11.6393 97.5908 11.5612C97.6152 11.8102 97.7471 12.1179 97.6494 12.2986C96.9755 13.5342 96.3015 14.7747 95.5396 15.9565C94.4847 17.5926 93.381 19.1944 92.2529 20.7768C91.8712 21.3237 91.3968 21.7997 90.8512 22.1833C89.6206 23.0184 88.1603 22.7205 86.9443 21.4849C86.1187 20.6367 85.6368 19.5127 85.5915 18.33C85.5329 17.1335 85.6843 15.9272 85.7429 14.7258C85.7429 14.6233 85.7429 14.5158 85.7429 14.2375C85.5349 14.4218 85.3422 14.6227 85.1666 14.8382C83.9164 16.7689 82.6759 18.6996 81.4452 20.6303C81.284 20.8793 81.0984 21.1186 80.9568 21.3726C80.8277 21.603 80.6199 21.7791 80.3714 21.8688C80.123 21.9585 79.8506 21.9557 79.604 21.861C79.3349 21.8229 79.0828 21.7069 78.8789 21.5273C78.6749 21.3476 78.5281 21.1122 78.4564 20.85C78.3391 20.3079 78.3001 19.7512 78.217 19.1993C78.187 18.9289 78.0896 18.6703 77.9338 18.4472C77.4454 19.2628 76.957 20.0882 76.4687 20.8891C75.7752 22.0221 75.0573 23.1405 74.3735 24.3077C73.8852 25.1428 73.1087 25.3235 72.2296 25.2845C72.1557 25.2836 72.0821 25.2754 72.0098 25.26C70.9793 24.9328 70.3103 25.4261 69.8219 26.2612C69.6964 26.451 69.6508 26.6826 69.6949 26.9059C71.0624 30.1731 69.9489 33.0301 68.2542 35.7894C67.1348 37.6561 65.6112 39.2481 63.7954 40.4485C62.4821 41.3653 60.9479 41.9149 59.3512 42.0405C58.7084 42.0747 58.0666 41.9563 57.4784 41.6948C56.8901 41.4334 56.3721 41.0364 55.9668 40.5364C55.3612 39.8526 55.4784 39.0322 55.7226 38.2215C56.1502 36.9768 56.8135 35.8261 57.6761 34.8322C58.9226 33.2909 60.3325 31.8892 61.881 30.6517C63.6196 29.3038 65.2996 27.8533 66.9845 26.4566C67.3019 26.1977 67.1993 25.9682 66.9258 25.8656C66.374 25.6063 65.7961 25.4065 65.2019 25.2698C63.854 25.0305 62.4914 24.8791 61.1338 24.6886C59.8767 24.5518 58.664 24.1453 57.5784 23.497C57.1779 23.2382 56.9386 23.331 56.631 23.6533C55.537 24.8058 54.4479 25.9731 53.2807 27.0719C51.8595 28.3905 49.8328 28.0242 48.69 26.3296C48.2993 25.7533 48.2895 25.7435 47.8109 26.2368C47.3097 26.7288 46.8368 27.249 46.3946 27.7947C46.2083 28.0884 46.0991 28.4243 46.0772 28.7714C45.8965 30.3001 45.8574 31.8482 45.5888 33.3475C44.9881 36.4926 44.1677 39.584 42.2093 42.2066C41.2325 43.5057 40.119 44.6485 38.4146 45.005C37.6261 45.1612 36.8078 45.0386 36.0997 44.6582C35.7547 44.4735 35.4659 44.199 35.2638 43.8638C35.0618 43.5285 34.9541 43.145 34.9521 42.7536C34.8944 41.3204 35.1843 39.8945 35.7969 38.5975C36.5286 36.8471 37.4946 35.2041 38.6686 33.7138C39.5525 32.5563 40.5244 31.4575 41.4523 30.3342C41.5011 30.2756 41.5304 30.1975 41.589 30.1633C42.8442 29.4112 43.0249 28.2098 43.0542 26.8912C43.0932 25.3528 43.1372 23.8145 43.1714 22.281C43.1614 22.0889 43.1369 21.8979 43.0981 21.7096L42.9223 21.7047ZM15.4855 30.7445C15.3412 30.7987 15.2036 30.8691 15.0753 30.9545C13.8641 32.1461 12.5943 33.2889 11.4711 34.5538C10.0149 36.2587 8.79897 38.1549 7.8571 40.1896C7.00756 41.797 6.43938 43.538 6.17711 45.3371C6.12339 45.8254 5.9085 46.4701 6.46036 46.7582C7.01223 47.0464 7.39315 46.5726 7.78385 46.2699C9.64944 44.8047 10.8362 42.8024 11.9301 40.7757C13.3513 38.0694 14.4355 35.1992 15.1583 32.2291C15.2755 31.7798 15.3585 31.3207 15.4855 30.764V30.7445ZM67.7414 28.4589C67.4093 28.7128 67.1847 28.8594 66.9845 29.0303C66.2568 29.6603 65.5193 30.2659 64.8161 30.9349C63.18 32.5173 61.5196 34.0703 59.9812 35.7405C58.9046 36.8564 58.1678 38.2555 57.8568 39.7745C57.764 40.2629 57.9056 40.4387 58.3451 40.3264C59.5792 39.9765 60.7213 39.3596 61.6905 38.5194C63.0711 37.4296 64.2911 36.1505 65.3142 34.7198C66.5107 33.0203 67.507 31.2524 67.7561 29.1377C67.7561 28.9668 67.7561 28.7959 67.7561 28.4638L67.7414 28.4589ZM42.8344 32.1119L42.6977 32.0142C42.5228 32.1645 42.3596 32.3278 42.2093 32.5026C40.4267 34.7101 38.7467 36.9859 37.6821 39.6426C37.1971 40.7124 37.0277 41.8985 37.1937 43.0613C37.306 43.6815 37.5355 43.784 37.9848 43.3543C38.5866 42.7826 39.1433 42.1654 39.6502 41.5082C40.5002 40.3426 41.1688 39.055 41.633 37.6891C42.211 35.8742 42.6053 34.0057 42.81 32.1119H42.8344ZM26.7865 26.0805C26.5299 26.0536 26.2713 26.0536 26.0148 26.0805C25.9223 26.0986 25.8346 26.1357 25.7573 26.1895C25.6799 26.2433 25.6146 26.3126 25.5655 26.3931C25.401 26.9967 25.4831 27.6409 25.7935 28.184C26.104 28.7271 26.6175 29.1246 27.2211 29.2891C27.5219 29.3689 27.8352 29.3905 28.1441 29.3526C28.8287 29.1855 29.451 28.8258 29.9374 28.316C30.4238 27.8062 30.754 27.1677 30.8888 26.4761C30.8888 26.3638 30.7032 26.1098 30.5958 26.1098C29.326 26.0805 28.0562 26.1098 26.7865 26.1098V26.0805ZM30.4639 24.5519C31.2648 24.5031 31.4406 24.3859 31.3918 23.6875C31.3362 23.0287 31.1882 22.3809 30.9523 21.7633C30.8493 21.3946 30.6062 21.081 30.2748 20.8893C29.9435 20.6976 29.5504 20.6432 29.1795 20.7377C29.1179 20.7528 29.0575 20.7724 28.9988 20.7963C27.6948 21.1528 26.9867 22.1638 26.4202 23.2919C26.2737 23.5849 26.5081 23.6631 26.7523 23.7119C27.5825 23.8828 28.4079 24.0684 29.2332 24.254C29.6434 24.3468 30.0537 24.4493 30.4639 24.5519Z" fill="#ED017F"/>
<g filter="url(#filter0_d_104_1386)">
<path d="M52.6321 12.371C51.3232 12.5761 49.8532 11.1305 49.9362 9.52863C49.9789 8.81295 50.2989 8.14209 50.8283 7.6586C51.3576 7.1751 52.0547 6.91706 52.7713 6.93932C53.4879 6.96157 54.1676 7.26236 54.6659 7.77777C55.1643 8.29318 55.4421 8.9826 55.4402 9.69955C55.4376 10.4102 55.1535 11.091 54.65 11.5926C54.1466 12.0942 53.4648 12.3758 52.7541 12.3758L52.6321 12.371Z" fill="#ED017F"/>
</g>
<defs>
<filter id="filter0_d_104_1386" x="45.9329" y="6.93799" width="13.5073" height="13.4526" filterUnits="userSpaceOnUse" color-interpolation-filters="sRGB">
<feFlood flood-opacity="0" result="BackgroundImageFix"/>
<feColorMatrix in="SourceAlpha" type="matrix" values="0 0 0 0 0 0 0 0 0 0 0 0 0 0 0 0 0 0 127 0" result="hardAlpha"/>
<feOffset dy="4"/>
<feGaussianBlur stdDeviation="2"/>
<feComposite in2="hardAlpha" operator="out"/>
<feColorMatrix type="matrix" values="0 0 0 0 0 0 0 0 0 0 0 0 0 0 0 0 0 0 0.1 0"/>
<feBlend mode="normal" in2="BackgroundImageFix" result="effect1_dropShadow_104_1386"/>
<feBlend mode="normal" in="SourceGraphic" in2="effect1_dropShadow_104_1386" result="shape"/>
</filter>
</defs>
</svg>
