<svg width="215" height="110" viewBox="0 0 215 110" fill="none" xmlns="http://www.w3.org/2000/svg">
<path d="M94.4291 47.7503C94.1927 48.1586 93.9456 48.5561 93.7307 48.9751C92.5059 51.3711 91.3455 53.7993 90.0562 56.1523C89.4349 57.1553 88.7494 58.1171 88.004 59.0317C87.2757 59.9205 86.2522 60.5179 85.1201 60.7152C83.9881 60.9124 82.8229 60.6963 81.8369 60.1061C80.8165 59.5873 79.9279 58.8424 79.239 57.9282C78.5501 57.014 78.079 55.9546 77.8615 54.8307C77.5499 53.4985 77.3028 53.5414 76.1102 54.2076C75.3378 54.592 74.6904 55.1879 74.2434 55.9259C73.7964 56.6639 73.5682 57.5137 73.5853 58.3763C73.3679 61.9217 72.0326 65.307 69.7711 68.0461C68.5359 69.6086 66.9052 70.8121 65.0481 71.5319C63.191 72.2517 61.1751 72.4616 59.2096 72.1396C56.463 71.8379 53.9049 70.5968 51.9679 68.6263C50.0929 66.5407 49.0392 63.8452 49.0026 61.0409C48.981 60.7153 48.981 60.3887 49.0026 60.0632C49.0026 59.2681 48.6373 58.9888 47.9281 59.3433C46.7033 59.902 45.4677 60.4177 44.2966 61.0946C43.8904 61.3599 43.596 61.7652 43.4693 62.2335C42.1585 66.8965 41.0626 71.6347 39.5799 76.201C36.8079 84.7964 33.4879 93.0909 28.2233 100.472C25.9414 103.976 22.7915 106.83 19.0799 108.756C15.9748 110.239 12.8913 110.701 9.88288 108.423C8.13441 106.976 6.9857 104.931 6.65962 102.685C5.96125 99.4622 6.81003 96.3464 7.62659 93.2843C9.59278 85.9997 13.4822 79.6928 18.0163 73.7728C21.8534 68.7896 26.4897 64.4765 31.7366 61.0087C32.1665 60.697 32.6317 60.4373 33.1226 60.2351C34.2035 59.8547 35.157 59.1808 35.8762 58.2888C36.5955 57.3969 37.052 56.3222 37.1947 55.1853C38.5491 49.4229 39.3869 43.5512 39.6981 37.64C39.9022 32.3538 40.1601 27.057 40.1386 21.7708C40.235 17.8027 39.5032 13.858 37.9897 10.1885C36.4963 6.75039 34.1326 5.64373 30.6192 6.96527C27.4596 8.2084 24.605 10.1176 22.2495 12.563C18.2517 16.4087 14.8318 20.813 12.0962 25.6387C10.509 28.4334 9.1161 31.334 7.92743 34.32C6.76036 37.5052 5.8197 40.7688 5.11245 44.0865C4.65294 45.6818 4.5849 47.3644 4.91408 48.9917C5.24326 50.6189 5.95998 52.1427 7.00344 53.434C8.43242 55.1638 10.3879 55.4002 12.3755 55.5828C13.3425 55.6581 14.3525 55.4969 15.298 55.6688C15.8459 55.7655 16.3079 56.3134 16.8022 56.6573C16.4154 57.1837 16.1253 58.0218 15.6203 58.1829C9.9366 59.9342 3.06031 58.1829 0.846998 51.3281C-0.24851 47.5056 -0.281935 43.457 0.750304 39.6169C2.50289 32.4377 5.511 25.6248 9.63576 19.493C12.3956 15.064 15.6664 10.9747 19.3808 7.30909C22.8082 4.01062 26.5471 1.12043 31.425 0.207169C33.8251 -0.250564 36.3082 0.0545229 38.526 1.07963C40.7439 2.10473 42.5852 3.79841 43.7916 5.92308C45.2851 8.77861 46.2841 11.8665 46.7463 15.0557C47.7121 20.1053 48.037 25.2567 47.7132 30.3877C47.3909 36.1143 46.7033 41.8195 46.1016 47.5247C45.8975 49.4694 45.4677 51.3818 45.1669 53.3158C44.995 54.3902 45.2528 54.6588 46.3487 54.3043C47.4915 53.9997 48.6059 53.5971 49.6795 53.1009C50.2841 52.7144 50.7651 52.1625 51.0654 51.5108C52.5223 48.6771 54.5792 46.1949 57.093 44.237C60.9824 41.2501 67.0206 41.4542 70.3728 44.4948C72.1784 46.2893 73.3158 48.6475 73.596 51.1777C73.8109 52.3703 74.2515 52.4777 75.2292 52.1017C76.9912 51.4356 77.1416 51.3281 77.0879 49.4586C76.9382 46.2734 77.3009 43.0847 78.1623 40.0145C78.7748 37.9516 79.5268 37.3392 81.1815 37.5218C81.8606 37.5331 82.5077 37.8131 82.9809 38.3004C83.4541 38.7877 83.715 39.4427 83.7064 40.1219C83.7064 41.379 83.5345 42.636 83.5237 43.9039C83.5237 47.6106 83.5237 51.3281 83.5237 55.0349C83.5238 55.4271 83.6606 55.807 83.9105 56.1093C84.7704 54.9189 85.5631 53.6814 86.285 52.4025C88.2941 48.3627 90.2389 44.2799 92.1513 40.1971C92.7852 38.8541 93.4406 37.7259 95.2027 37.9623C96.9647 38.1987 98.673 38.8648 99.3607 40.7021C99.8227 42.0051 100.133 43.3571 100.285 44.7312C100.714 48.1586 101.015 51.6075 101.359 55.0456C101.448 55.4216 101.589 55.7832 101.778 56.1201C102.088 55.9614 102.39 55.7856 102.681 55.5936C102.971 55.3679 103.186 55.0564 103.476 54.8307C104.248 54.2636 104.854 53.5003 105.232 52.62C105.61 51.7396 105.745 50.7743 105.625 49.8239C105.367 46.042 106.774 42.4426 108.321 39.0045C109.245 36.9631 110.373 35.0292 111.405 33.0415C112.232 31.4513 113.629 31.634 115.026 31.8918C115.639 31.9722 116.221 32.2133 116.711 32.5907C117.202 32.968 117.584 33.4682 117.819 34.0407C117.956 34.4669 117.956 34.9252 117.819 35.3515C116.884 38.8541 115.885 42.3352 114.972 45.8486C113.962 49.7165 113.017 53.5952 112.06 57.4631C112.031 57.8206 112.031 58.18 112.06 58.5375C112.604 58.3637 113.133 58.1444 113.64 57.8821C116.903 55.6508 119.87 53.0154 122.471 50.0388C125.104 47.1809 127.596 44.194 130.229 41.336C131.518 39.9393 133.022 38.7252 134.376 37.3714C134.85 36.8691 135.255 36.3054 135.579 35.6953C136.246 34.5134 135.751 33.5464 134.505 33.8688C132.492 34.3541 130.508 34.9532 128.563 35.6631C126.952 36.2003 125.415 36.4904 124.008 35.1581C123.202 34.3845 123.148 33.8043 124.137 33.2241C125.046 32.6852 126.016 32.2561 127.027 31.9456C130.25 31.0108 133.474 30.0331 136.847 30.1405C139.942 30.248 142.832 33.1167 142.466 36.0284C142.208 37.4233 141.61 38.7331 140.726 39.8425C138.835 42.3997 136.729 44.7849 134.741 47.2561C134.524 47.6184 134.358 48.0088 134.247 48.4164C134.617 48.5528 134.998 48.6571 135.386 48.728C140.479 49.1578 145.249 50.3826 149.085 54.1001C149.536 54.5299 149.987 55.4969 151.008 54.8844C152.63 53.9067 153.232 52.9183 153.007 51.6612C152.231 47.4893 152.181 43.2151 152.856 39.026C153.674 34.5714 155.121 30.2556 157.154 26.2081C157.723 25.0048 159.303 24.5965 161.129 25.1337C163.482 25.8858 164.041 26.7346 163.654 29.2165C162.902 34.1589 162.107 39.1012 161.333 44.0543C161.314 44.1911 161.323 44.3305 161.36 44.4636C161.397 44.5968 161.461 44.7208 161.548 44.8279C162.365 43.4096 163.214 42.0021 163.998 40.5302C165.959 36.8627 168.292 33.4064 170.96 30.2157C171.483 29.5571 172.208 29.0881 173.023 28.8805C173.838 28.6728 174.698 28.738 175.473 29.0661C177.353 29.6463 178.879 30.5488 178.943 32.7836C178.943 34.1481 178.943 35.5234 178.943 36.8879L179.298 37.0491C179.674 36.6193 180.071 36.211 180.372 35.7598C183.166 32.2142 185.905 28.6149 188.763 25.123C189.891 23.7477 191.202 23.7262 192.857 24.4139C195.704 25.5957 196.875 27.6371 196.875 30.7315C196.769 35.373 196.305 39.9995 195.489 44.57C195.432 44.7652 195.406 44.9684 195.414 45.1717C195.5 45.623 195.64 46.0635 195.768 46.5147C196.171 46.3701 196.556 46.1828 196.918 45.956C199.86 43.626 202.441 40.8745 204.579 37.7904C207.319 34.03 209.951 30.2695 212.658 26.4445C212.777 26.2726 212.852 26.0148 213.013 25.961C213.561 25.7462 214.087 25.6065 214.7 25.4346C214.754 25.9825 215.044 26.6594 214.829 27.0569C213.346 29.7752 211.863 32.5043 210.187 35.1044C207.866 38.7037 205.438 42.2278 202.956 45.7089C202.117 46.9121 201.073 47.9593 199.873 48.8032C197.165 50.6405 193.953 49.9851 191.277 47.2668C189.461 45.4008 188.401 42.928 188.301 40.326C188.172 37.6937 188.505 35.0399 188.634 32.3968C188.634 32.1712 188.634 31.9348 188.634 31.3224C188.177 31.728 187.753 32.1699 187.367 32.6439C184.616 36.8915 181.887 41.139 179.179 45.3866C178.825 45.9345 178.417 46.461 178.105 47.0197C177.821 47.5266 177.364 47.9141 176.817 48.1114C176.271 48.3088 175.671 48.3026 175.129 48.0941C174.537 48.0104 173.982 47.7552 173.534 47.36C173.085 46.9647 172.762 46.4468 172.604 45.8701C172.346 44.6775 172.26 43.4526 172.077 42.2385C172.011 41.6435 171.797 41.0746 171.454 40.5839C170.38 42.3782 169.305 44.194 168.231 45.956C166.705 48.4487 165.126 50.9091 163.622 53.477C162.547 55.3142 160.839 55.7118 158.905 55.6258C158.743 55.6238 158.581 55.6059 158.422 55.5721C156.155 54.8522 154.683 55.9374 153.608 57.7746C153.332 58.1922 153.232 58.7018 153.329 59.1929C156.337 66.3808 153.888 72.6661 150.159 78.7366C147.697 82.8434 144.345 86.3459 140.35 88.9866C137.461 91.0037 134.085 92.2129 130.573 92.4892C129.158 92.5644 127.747 92.3038 126.452 91.7286C125.158 91.1535 124.019 90.2801 123.127 89.18C121.795 87.6758 122.052 85.8708 122.59 84.0872C123.531 81.349 124.99 78.8175 126.887 76.6308C129.63 73.24 132.731 70.1563 136.138 67.4337C139.963 64.4683 143.659 61.2773 147.366 58.2044C148.064 57.635 147.839 57.13 147.237 56.9044C146.023 56.3338 144.751 55.8943 143.444 55.5936C140.479 55.0671 137.481 54.734 134.494 54.315C131.729 54.0139 129.061 53.1196 126.672 51.6934C125.791 51.124 125.265 51.3281 124.588 52.0372C122.181 54.5729 119.785 57.1407 117.218 59.5582C114.091 62.4591 109.632 61.6533 107.118 57.9251C106.258 56.6573 106.237 56.6358 105.184 57.7209C104.081 58.8034 103.041 59.9477 102.068 61.1483C101.658 61.7944 101.418 62.5335 101.37 63.2972C100.972 66.6601 100.886 70.066 100.295 73.3645C98.9739 80.2838 97.1689 87.0849 92.8604 92.8545C90.7116 95.7125 88.2619 98.2266 84.5122 99.0109C82.7775 99.3546 80.9773 99.085 79.4194 98.2481C78.6602 97.8418 78.0249 97.2379 77.5805 96.5004C77.136 95.7628 76.899 94.9189 76.8945 94.0579C76.7677 90.9048 77.4054 87.7678 78.7533 84.9145C80.3629 81.0635 82.4882 77.4491 85.0709 74.1703C87.0156 71.6239 89.1537 69.2065 91.1951 66.7353C91.3025 66.6064 91.367 66.4345 91.4959 66.3593C94.2572 64.7047 94.6547 62.0616 94.7192 59.1607C94.8051 55.7762 94.9018 52.3918 94.9771 49.0181C94.9551 48.5956 94.9012 48.1754 94.8159 47.7611L94.4291 47.7503ZM34.0681 67.6378C33.7507 67.7571 33.4479 67.9121 33.1656 68.0998C30.501 70.7214 27.7075 73.2356 25.2364 76.0183C22.0328 79.7691 19.3577 83.9408 17.2856 88.4172C15.4166 91.9535 14.1666 95.7835 13.5897 99.7415C13.4715 100.816 12.9987 102.234 14.2128 102.868C15.4269 103.502 16.2649 102.46 17.1245 101.794C21.2288 98.5704 23.8396 94.1653 26.2463 89.7064C29.3729 83.7527 31.758 77.4381 33.3482 70.9041C33.6061 69.9156 33.7888 68.9056 34.0681 67.6808V67.6378ZM149.031 62.6095C148.301 63.1682 147.806 63.4906 147.366 63.8666C145.765 65.2526 144.143 66.5849 142.595 68.0569C138.996 71.538 135.343 74.9546 131.959 78.6292C129.59 81.084 127.969 84.1621 127.285 87.5039C127.081 88.5783 127.392 88.9651 128.359 88.718C131.074 87.9482 133.587 86.5911 135.719 84.7426C138.756 82.3452 141.44 79.5311 143.691 76.3836C146.324 72.6446 148.515 68.7552 149.063 64.103C149.063 63.7269 149.063 63.3509 149.063 62.6203L149.031 62.6095ZM94.2357 70.6462L93.9349 70.4313C93.5502 70.7619 93.191 71.1211 92.8604 71.5057C88.9388 76.3621 85.2428 81.369 82.9005 87.2138C81.8336 89.5674 81.4609 92.1766 81.8261 94.7348C82.0732 96.0993 82.5782 96.3249 83.5667 95.3794C84.8905 94.1218 86.1154 92.764 87.2305 91.3181C89.1005 88.7538 90.5713 85.921 91.5926 82.9161C92.8643 78.9231 93.7317 74.8125 94.182 70.6462H94.2357ZM58.9302 57.3771C58.3659 57.318 57.797 57.318 57.2326 57.3771C57.0292 57.4168 56.8362 57.4985 56.666 57.6169C56.4958 57.7353 56.3522 57.8878 56.2442 58.0648C55.8823 59.3926 56.0627 60.8099 56.7458 62.0047C57.4288 63.1996 58.5586 64.0742 59.8865 64.4361C60.5483 64.6116 61.2375 64.659 61.9171 64.5757C63.423 64.2081 64.7921 63.4167 65.8622 62.2952C66.9324 61.1736 67.6587 59.7689 67.9553 58.2474C67.9553 58.0003 67.5471 57.4416 67.3107 57.4416C64.5172 57.3771 61.7237 57.4416 58.9302 57.4416V57.3771ZM67.0206 54.0142C68.7826 53.9067 69.1694 53.6489 69.062 52.1124C68.9396 50.663 68.6141 49.238 68.095 47.8792C67.8685 47.0682 67.3335 46.3781 66.6047 45.9564C65.8758 45.5348 65.0108 45.4151 64.1949 45.6229C64.0594 45.6561 63.9265 45.6992 63.7973 45.7519C60.9286 46.5362 59.3707 48.7603 58.1244 51.2422C57.8021 51.8868 58.3178 52.0587 58.855 52.1662C60.6815 52.5422 62.4973 52.9505 64.3131 53.3588C65.2156 53.5629 66.1181 53.7885 67.0206 54.0142Z" fill="white"/>
<path d="M115.791 27.2162C112.911 27.6674 109.677 24.4872 109.86 20.9631C109.954 19.3886 110.658 17.9127 111.822 16.849C112.987 15.7853 114.521 15.2176 116.097 15.2666C117.674 15.3156 119.169 15.9773 120.265 17.1112C121.362 18.2451 121.973 19.7618 121.969 21.3391C121.963 22.9026 121.338 24.4002 120.23 25.5038C119.123 26.6073 117.623 27.227 116.059 27.2269L115.791 27.2162Z" fill="white"/>
</svg>
