<svg width="207" height="80" viewBox="0 0 207 80" fill="none" xmlns="http://www.w3.org/2000/svg">
<path d="M38.2708 13.842C37.2128 13.842 36.1868 13.7018 35.1926 13.4214C34.2112 13.1282 33.421 12.7522 32.8219 12.2934L33.8734 9.96089C34.447 10.3815 35.1289 10.7193 35.9191 10.9742C36.7094 11.2291 37.4996 11.3566 38.2899 11.3566C39.1693 11.3566 39.8194 11.2291 40.24 10.9742C40.6606 10.7065 40.8709 10.356 40.8709 9.92265C40.8709 9.604 40.7435 9.34271 40.4885 9.13878C40.2464 8.9221 39.9277 8.75003 39.5326 8.62257C39.1502 8.49511 38.6276 8.35491 37.9649 8.20196C36.9452 7.95979 36.1103 7.71762 35.4603 7.47545C34.8103 7.23328 34.2494 6.84453 33.7778 6.3092C33.319 5.77387 33.0896 5.06011 33.0896 4.1679C33.0896 3.3904 33.2999 2.68938 33.7205 2.06483C34.1411 1.42754 34.772 0.924074 35.6132 0.554445C36.4672 0.184815 37.506 0 38.7296 0C39.5836 0 40.4184 0.101967 41.2342 0.3059C42.0499 0.509834 42.7637 0.802989 43.3755 1.18536L42.4195 3.53698C41.1832 2.83595 39.9468 2.48544 38.7105 2.48544C37.8438 2.48544 37.2001 2.62565 36.7795 2.90606C36.3716 3.18646 36.1677 3.55609 36.1677 4.01495C36.1677 4.4738 36.4035 4.81793 36.8751 5.04736C37.3594 5.26404 38.0923 5.48072 39.0737 5.6974C40.0934 5.93957 40.9283 6.18174 41.5783 6.42391C42.2283 6.66608 42.7828 7.04846 43.2416 7.57104C43.7132 8.09362 43.949 8.80102 43.949 9.69323C43.949 10.458 43.7324 11.159 43.299 11.7963C42.8784 12.4208 42.2411 12.9179 41.3871 13.2876C40.5331 13.6572 39.4944 13.842 38.2708 13.842Z" fill="white"/>
<path d="M63.4826 13.842C61.5707 13.842 60.0795 13.3131 59.0088 12.2551C57.9509 11.1972 57.422 9.68685 57.422 7.72399V0.229425H60.5192V7.60928C60.5192 10.0055 61.5134 11.2036 63.5017 11.2036C64.4704 11.2036 65.2097 10.9168 65.7195 10.3433C66.2293 9.75696 66.4843 8.84563 66.4843 7.60928V0.229425H69.5433V7.72399C69.5433 9.68685 69.0079 11.1972 67.9373 12.2551C66.8794 13.3131 65.3945 13.842 63.4826 13.842Z" fill="white"/>
<path d="M96.3495 0.229425V13.6126H93.8067L87.1342 5.48709V13.6126H84.0752V0.229425H86.6371L93.2905 8.35491V0.229425H96.3495Z" fill="white"/>
<path d="M110.987 0.229425H117.067C118.52 0.229425 119.801 0.509834 120.91 1.07065C122.031 1.61872 122.898 2.39622 123.51 3.40314C124.134 4.41007 124.447 5.58269 124.447 6.921C124.447 8.25932 124.134 9.43194 123.51 10.4389C122.898 11.4458 122.031 12.2297 120.91 12.7905C119.801 13.3385 118.52 13.6126 117.067 13.6126H110.987V0.229425ZM116.914 11.0698C118.252 11.0698 119.317 10.7001 120.107 9.96089C120.91 9.20888 121.311 8.19559 121.311 6.921C121.311 5.64642 120.91 4.63949 120.107 3.90023C119.317 3.14823 118.252 2.77222 116.914 2.77222H114.084V11.0698H116.914Z" fill="white"/>
<path d="M146.881 10.7448H140.667L139.482 13.6126H136.308L142.273 0.229425H145.332L151.316 13.6126H148.066L146.881 10.7448ZM145.906 8.39315L143.784 3.26931L141.661 8.39315H145.906Z" fill="white"/>
<path d="M169.779 8.87112V13.6126H166.681V8.83288L161.5 0.229425H164.789L168.364 6.17537L171.939 0.229425H174.979L169.779 8.87112Z" fill="white"/>
<path d="M16.8315 38.6929C18.0829 39.1309 19.0632 39.8191 19.7723 40.7577C20.4814 41.6754 20.836 42.7912 20.836 44.1052C20.836 46.024 20.0643 47.5049 18.5209 48.5477C16.9775 49.5906 14.7458 50.112 11.8258 50.112H0V28.2123H11.2001C13.995 28.2123 16.1224 28.7337 17.5823 29.7766C19.0423 30.7985 19.7723 32.1855 19.7723 33.9375C19.7723 34.9803 19.5116 35.9189 18.9902 36.7532C18.4896 37.5666 17.77 38.2132 16.8315 38.6929ZM6.13192 32.6861V36.9096H10.3867C12.4724 36.9096 13.5152 36.2005 13.5152 34.7822C13.5152 33.3848 12.4724 32.6861 10.3867 32.6861H6.13192ZM11.3253 45.6382C13.4944 45.6382 14.5789 44.8978 14.5789 43.4169C14.5789 41.9361 13.4944 41.1957 11.3253 41.1957H6.13192V45.6382H11.3253Z" fill="white"/>
<path d="M38.7173 45.8572H29.4568L27.7361 50.112H21.4165L31.0836 28.2123H37.1843L46.8827 50.112H40.438L38.7173 45.8572ZM36.9027 41.2895L34.087 34.2816L31.2714 41.2895H36.9027Z" fill="white"/>
<path d="M48.6389 28.2123H58.9943C61.3928 28.2123 63.5202 28.6607 65.3765 29.5576C67.2327 30.4544 68.6719 31.7267 69.6939 33.3744C70.7158 35.0221 71.2268 36.9513 71.2268 39.1621C71.2268 41.373 70.7158 43.3022 69.6939 44.9499C68.6719 46.5976 67.2327 47.8699 65.3765 48.7667C63.5202 49.6636 61.3928 50.112 58.9943 50.112H48.6389V28.2123ZM58.744 45.1689C60.6211 45.1689 62.1228 44.6371 63.2491 43.5734C64.3962 42.5097 64.9698 41.0393 64.9698 39.1621C64.9698 37.285 64.3962 35.8146 63.2491 34.7509C62.1228 33.6872 60.6211 33.1554 58.744 33.1554H54.8333V45.1689H58.744Z" fill="white"/>
<path d="M94.2582 50.112L94.1956 38.5051L88.5643 47.9533H85.8112L80.2111 38.818V50.112H74.4859V28.2123H79.5854L87.2816 40.8515L94.79 28.2123H99.8895L99.9521 50.112H94.2582Z" fill="white"/>
<path d="M104.335 28.2123H110.53V50.112H104.335V28.2123Z" fill="white"/>
<path d="M135.773 28.2123V50.112H130.673L121.006 38.4426V50.112H114.937V28.2123H120.036L129.703 39.8817V28.2123H135.773Z" fill="white"/>
<path d="M144.804 33.1241H138.077V28.2123H157.693V33.1241H150.998V50.112H144.804V33.1241Z" fill="white"/>
<path d="M170.739 50.55C168.424 50.55 166.338 50.0599 164.482 49.0796C162.647 48.0993 161.197 46.7436 160.134 45.0125C159.091 43.2814 158.569 41.3313 158.569 39.1621C158.569 36.993 159.091 35.0429 160.134 33.3118C161.197 31.5807 162.647 30.225 164.482 29.2447C166.338 28.2644 168.424 27.7743 170.739 27.7743C173.054 27.7743 175.13 28.2644 176.965 29.2447C178.821 30.225 180.271 31.5807 181.314 33.3118C182.377 35.0429 182.909 36.993 182.909 39.1621C182.909 41.3313 182.377 43.2814 181.314 45.0125C180.271 46.7436 178.821 48.0993 176.965 49.0796C175.13 50.0599 173.054 50.55 170.739 50.55ZM170.739 45.4192C171.845 45.4192 172.846 45.1585 173.743 44.6371C174.639 44.1156 175.349 43.3857 175.87 42.4471C176.391 41.4877 176.652 40.3927 176.652 39.1621C176.652 37.9316 176.391 36.847 175.87 35.9085C175.349 34.9491 174.639 34.2086 173.743 33.6872C172.846 33.1658 171.845 32.9051 170.739 32.9051C169.634 32.9051 168.633 33.1658 167.736 33.6872C166.839 34.2086 166.13 34.9491 165.608 35.9085C165.087 36.847 164.826 37.9316 164.826 39.1621C164.826 40.3927 165.087 41.4877 165.608 42.4471C166.13 43.3857 166.839 44.1156 167.736 44.6371C168.633 45.1585 169.634 45.4192 170.739 45.4192Z" fill="white"/>
<path d="M206.99 28.2123V50.112H201.89L192.223 38.4426V50.112H186.154V28.2123H191.253L200.92 39.8817V28.2123H206.99Z" fill="white"/>
<path d="M42.4083 70.7779C43.3816 71.1185 44.1441 71.6539 44.6956 72.3838C45.2471 73.0976 45.5229 73.9655 45.5229 74.9875C45.5229 76.4799 44.9227 77.6317 43.7223 78.4428C42.5218 79.2539 40.7861 79.6594 38.515 79.6594H29.3171V62.6263H38.0284C40.2021 62.6263 41.8567 63.0319 42.9923 63.843C44.1278 64.6378 44.6956 65.7166 44.6956 67.0792C44.6956 67.8903 44.4928 68.6203 44.0873 69.2692C43.6979 69.9019 43.1383 70.4048 42.4083 70.7779ZM34.0864 66.1059V69.3909H37.3957C39.0179 69.3909 39.829 68.8393 39.829 67.7362C39.829 66.6494 39.0179 66.1059 37.3957 66.1059H34.0864ZM38.1257 76.1798C39.8128 76.1798 40.6563 75.6039 40.6563 74.4521C40.6563 73.3004 39.8128 72.7245 38.1257 72.7245H34.0864V76.1798H38.1257Z" fill="white"/>
<path d="M86.1969 76.3501H78.9943L77.656 79.6594H72.7407L80.2596 62.6263H85.0046L92.5478 79.6594H87.5352L86.1969 76.3501ZM84.7856 72.7975L82.5956 67.3469L80.4056 72.7975H84.7856Z" fill="white"/>
<path d="M126.666 80.0001C125.287 80.0001 123.949 79.8297 122.651 79.4891C121.353 79.1484 120.299 78.6942 119.488 78.1264L121.069 74.5738C121.832 75.0767 122.716 75.4822 123.722 75.7905C124.727 76.0987 125.717 76.2528 126.69 76.2528C128.54 76.2528 129.464 75.7905 129.464 74.8658C129.464 74.3791 129.197 74.0223 128.661 73.7952C128.142 73.5518 127.299 73.3004 126.131 73.0408C124.849 72.7651 123.778 72.4731 122.919 72.1648C122.059 71.8404 121.321 71.3294 120.704 70.6319C120.088 69.9343 119.78 68.9934 119.78 67.8092C119.78 66.771 120.064 65.8383 120.631 65.0109C121.199 64.1674 122.043 63.5023 123.162 63.0156C124.297 62.529 125.684 62.2856 127.323 62.2856C128.442 62.2856 129.545 62.4154 130.632 62.675C131.719 62.9183 132.676 63.2833 133.503 63.77L132.019 67.3469C130.397 66.4709 128.823 66.0329 127.299 66.0329C126.341 66.0329 125.644 66.1789 125.206 66.4709C124.768 66.7467 124.549 67.1117 124.549 67.5659C124.549 68.0201 124.808 68.3608 125.328 68.5879C125.847 68.815 126.682 69.0502 127.834 69.2936C129.132 69.5693 130.202 69.8694 131.046 70.1939C131.906 70.5021 132.644 71.005 133.26 71.7025C133.893 72.3838 134.209 73.3166 134.209 74.5008C134.209 75.5228 133.925 76.4475 133.357 77.2748C132.79 78.1021 131.938 78.7672 130.803 79.2701C129.667 79.7567 128.288 80.0001 126.666 80.0001Z" fill="white"/>
<path d="M179.407 62.6263V79.6594H174.589V73.0165H168.019V79.6594H163.201V62.6263H168.019V69.0259H174.589V62.6263H179.407Z" fill="white"/>
</svg>
