<svg width="50" height="50" viewBox="0 0 50 50" fill="none" xmlns="http://www.w3.org/2000/svg">
<rect x="0.5" y="0.5" width="49" height="49" rx="24.5" fill="#F1F3FF" fill-opacity="0.6" stroke="#F1F3FF"/>
<g clip-path="url(#clip0_423_95)">
<path d="M24.9937 12C20.9516 12 17.666 15.2855 17.666 19.3277C17.666 23.3699 20.9516 26.6555 24.9937 26.6555C29.0359 26.6555 32.3215 23.3699 32.3215 19.3277C32.3215 15.2855 29.0359 12 24.9937 12ZM24.9937 24.1113C22.3531 24.1113 20.2051 21.9633 20.2051 19.3227C20.2051 16.682 22.3582 14.5391 24.9937 14.5391C27.6293 14.5391 29.7824 16.6871 29.7824 19.3277C29.7824 21.9684 27.6344 24.1113 24.9937 24.1113Z" fill="#6A1B9A"/>
<path d="M36.6748 33.5616C36.0146 31.1292 34.6334 28.9913 32.6783 27.3866C32.1349 26.9398 31.3377 27.021 30.8908 27.5593C30.4439 28.1026 30.5252 28.8999 31.0634 29.3468C32.6072 30.6214 33.7041 32.3073 34.222 34.2269C34.3287 34.628 34.1611 34.9226 34.0545 35.0698C33.8615 35.3187 33.572 35.4659 33.2572 35.4659C32.5564 35.4659 31.9877 36.0347 31.9877 36.7355C31.9877 37.4362 32.5564 38.005 33.2572 38.005C34.3693 38.005 35.3951 37.4972 36.0705 36.6136C36.7408 35.7351 36.9642 34.623 36.6748 33.5616Z" fill="#6A1B9A"/>
<path d="M28.6966 35.4609H16.7376C16.311 35.4609 16.0622 35.2171 15.9505 35.0699C15.7575 34.816 15.6966 34.496 15.7829 34.1913C16.3059 32.2921 17.3927 30.6163 18.9212 29.357C19.4595 28.9101 19.5407 28.1128 19.0938 27.5695C18.647 27.0261 17.8497 26.9499 17.3063 27.3968C15.3716 28.9964 13.9954 31.1089 13.3352 33.521C13.0407 34.5976 13.2591 35.7249 13.9345 36.6136C14.5997 37.4921 15.6255 37.9999 16.7376 37.9999H28.6966C29.3973 37.9999 29.9661 37.4312 29.9661 36.7304C29.9661 36.0296 29.3973 35.4609 28.6966 35.4609Z" fill="#6A1B9A"/>
</g>
<defs>
<clipPath id="clip0_423_95">
<rect width="26" height="26" fill="white" transform="translate(12 12)"/>
</clipPath>
</defs>
</svg>
